<?xml version="1.0" encoding="UTF-8"?>
<svg id="Layer_2" data-name="Layer 2" xmlns="http://www.w3.org/2000/svg" viewBox="0 0 1000 335.05">
  <defs>
    <style>
      .cls-1 {
        fill: #abd037;
      }

      .cls-2 {
        fill: #07f;
      }
    </style>
  </defs>
  <g id="Layer_1-2" data-name="Layer 1">
    <g>
      <g>
        <g>
          <path class="cls-1" d="M169.53,75.49h10.21c10.63,0,17.56,11.16,12.86,20.7l-63.52,128.69c-.34.68-1.03,1.12-1.8,1.12h-13.04c-6.85,0-12.64-5.07-13.55-11.85l-9.75-72.49c-.16-1.22-1.82-1.49-2.36-.38l-40.68,83.6c-.34.69-1.03,1.13-1.8,1.13h-13.12c-6.81,0-12.58-5.01-13.54-11.76L.01,77.1c-.12-.85.54-1.61,1.4-1.61h16.44c9.21,0,17,6.84,18.2,15.98l9.45,72.32c.14,1.08,1.6,1.32,2.08.34l42.51-87.51c.34-.69,1.04-1.13,1.8-1.13h13.05c4.09,0,7.54,3.04,8.07,7.09l10.51,81.2c.14,1.08,1.6,1.32,2.08.34l42.67-87.84c.24-.49.73-.79,1.27-.79"/>
          <path class="cls-1" d="M207.5,225.99h-14.22c-8.5,0-14.94-7.68-13.46-16.05l16.24-92.2c.17-.96,1-1.66,1.97-1.66h19.74c5.62,0,9.87,5.07,8.9,10.61l-17.2,97.64c-.17.96-1,1.66-1.97,1.66"/>
          <path class="cls-1" d="M305,114.92c6.37,0,11.99,1.11,16.85,3.32,4.86,2.22,8.92,5.15,12.19,8.81,3.26,3.66,5.69,7.88,7.29,12.66,1.59,4.78,2.39,9.82,2.39,15.11,0,3.03-.23,6.07-.7,9.1l-10.67,60.41c-.17.96-1,1.65-1.97,1.65h-14.33c-8.5,0-14.94-7.68-13.46-16.06l7.19-40.76c1.24-7.47.45-13.4-2.39-17.79-2.84-4.39-7.75-6.59-14.75-6.59-5.44,0-10.32,1.79-14.63,5.37-4.31,3.58-7.09,8.79-8.34,15.63l-10.21,58.54c-.17.96-1,1.66-1.97,1.66h-14.33c-8.5,0-14.94-7.68-13.46-16.05l16.24-92.2c.17-.96,1-1.66,1.97-1.66h11.04c6.63,0,12.46,4.37,14.33,10.73,3.03-2.26,6.22-4.24,9.56-5.95,2.88-1.4,6.22-2.74,10.03-4.02,3.81-1.28,7.85-1.93,12.13-1.93"/>
          <path class="cls-1" d="M471.87,116.09h-7.28c-8.72,0-16.99,4.46-21.67,11.81-.1.16-.33.19-.47.06-2.43-2.38-5.26-4.51-8.48-6.39-2.88-1.79-6.34-3.34-10.38-4.67-4.04-1.32-8.63-1.98-13.76-1.98-7,0-13.84,1.46-20.52,4.37-6.69,2.92-12.58,6.94-17.67,12.08-5.09,5.13-9.26,11.21-12.3,18.32-4.75,11.08-4.94,20.68-4.94,28.92,0,6.69,1.15,12.95,3.44,18.78,2.29,5.83,5.52,10.85,9.68,15.05,4.16,4.2,9.06,7.51,14.69,9.92,5.64,2.41,11.72,3.62,18.25,3.62,3.96,0,7.42-.41,10.38-1.22,2.95-.82,5.48-1.69,7.58-2.63,1.68-.84,3.22-1.75,4.62-2.71.19-.13.44.04.39.26-7.01,34.14-31.31,51.25-55.86,59.74-6.38,2.21-4.33,11.75,2.39,11.07,36.44-3.67,77.12-19.37,85.87-69.28,5.98-34.13,15.88-90.63,18.01-102.77.22-1.23-.73-2.35-1.97-2.35M417.49,194.19c-2.96,1.28-6.1,1.93-9.45,1.93-6.53,0-11.7-1.9-15.51-5.72-3.81-3.81-5.72-9.44-5.96-15.19-.15-3.68.17-9.88,2.44-15.02,1.36-3.08,3.03-5.83,5.25-8.17,2.22-2.33,4.8-4.12,7.76-5.37,2.95-1.24,6.1-1.87,9.45-1.87,6.53,0,11.7,1.91,15.51,5.72,3.81,3.81,5.71,8.6,5.71,14.35,0,2.31-.36,6.86-.94,10.66l-.66,3.52c-.17.71-.35,1.33-.54,1.79-1.24,3.03-2.99,5.7-5.25,7.99-2.26,2.3-4.86,4.08-7.81,5.37"/>
          <path class="cls-2" d="M286.39,31.63s17.44,3.28,24.78,32.62c3.49,13.96,5.94,24.21,9.3,37.94.33,1.36-1.5,2.17-2.16.94-4.56-8.41-16.94-31.04-35.25-42.98-9.97-6.5-23.23-13.28-33.33,1.36-7.78,11.27-13.47,26.63-16.7,36.57-.5,1.54-2.81,1.01-2.58-.59,1.61-11.18,5.47-23.08-.76-30.09-6-6.75-23.69-4.66-36.64-4.62-1.27,0-1.42-1.86-.16-2.05,14.79-2.24,37.72-5.7,45.55-11.09,4.16-2.86,17.86-12.71-5.36-27.51-17.08-10.89-38.85-16.9-48.86-20.22-1.11-.37-.75-2.02.41-1.92,10.08.83,33.51,2.35,40.32,2.86,12.89.97,42.2,3.08,47.04,18.38,8.73-7.05,19.46-9.34,24.47-7,.83.31-.11,2.68-.11,2.68,0,0-3.6,8.02-9.95,14.7"/>
        </g>
        <g>
          <path class="cls-2" d="M534.44,89.62c1.15-6.16,6.48-10.57,12.77-10.57h45.63c39.89,0,46.45,16.12,46.8,32.24.43,19.43-9.62,32.66-26.48,36.38,0,0-.2.04-.21.21,0,.18.22.2.22.2,13.09,3.1,21.22,15.71,21.51,28.94.66,29.97-22.89,49.4-66.08,49.6h-56.66c-1.61,0-2.81-1.45-2.51-3.03l25.02-133.97ZM547.64,193.34c-.31,1.63.92,3.12,2.58,3.12h27.01c13.43,0,26.19-2.89,25.84-18.81-.3-13.64-12.72-14.67-22.64-14.67h-24.82c-1.31,0-2.44.94-2.68,2.23l-5.29,28.14ZM558.7,134.22c-.28,1.52.87,2.91,2.41,2.91h24.33c15.5,0,23.04-4.96,22.79-16.33-.24-10.75-11.42-11.57-19.68-11.57h-23.11c-1.21,0-2.27.88-2.49,2.07l-4.25,22.92Z"/>
          <path class="cls-2" d="M953.06,162.02l27.82,64.01h-27.14c-4.8,0-9.18-2.98-10.95-7.49l-13.79-34.89c-.16-.4-.66-.52-.99-.25l-11.2,9.51c-.2.17-.34.4-.38.66l-5.72,30.81c-.18.96-1.01,1.65-1.98,1.65h-13.18c-8.85,0-15.65-8.14-14.02-16.81l24.61-130.77h14.7c8.93,0,15.78,8.22,14.13,16.96l-11.21,59.38h0c0,.12.09.22.21.22.05,0,.09-.02.13-.05h0l31.23-31.56c2.94-2.97,6.94-4.65,11.08-4.65h33.45c.13,0,.19.16.09.24l-46.47,41.12c-.54.47-.71,1.24-.42,1.9Z"/>
          <path class="cls-2" d="M834.44,114.96c6.37,0,11.99,1.11,16.85,3.32,4.86,2.22,8.92,5.15,12.19,8.81,3.26,3.66,5.69,7.88,7.29,12.66,1.59,4.78,2.39,9.82,2.39,15.11,0,3.03-.23,6.07-.7,9.1l-10.67,60.41c-.17.96-1,1.65-1.97,1.65h-14.33c-8.5,0-14.94-7.68-13.46-16.06l7.19-40.76c1.24-7.47.45-13.4-2.39-17.79-2.84-4.39-7.75-6.59-14.75-6.59-5.44,0-10.32,1.79-14.63,5.37-4.31,3.58-7.09,8.79-8.34,15.63l-10.21,58.54c-.17.96-1,1.66-1.97,1.66h-14.33c-8.5,0-14.94-7.68-13.46-16.05l16.24-92.2c.17-.96,1-1.66,1.97-1.66h11.04c6.4,0,12.05,4.07,14.12,10.07.11.32.49.45.77.25,2.86-2.09,5.86-3.93,9-5.54,2.88-1.4,6.22-2.74,10.03-4.02,3.81-1.28,7.85-1.93,12.13-1.93"/>
          <path class="cls-2" d="M707.63,113.48c-25.24,0-45.16,7.64-51.07,33.06-.37,1.6.81,3.11,2.44,3.11h21.48c4.49,0,8.47-2.5,10.67-6.37,2.93-5.2,8.82-7.06,17.19-7.06,10.54,0,14.97,4.13,15.11,10.33.31,14.05-16.24,13.23-28.22,13.85-27.44,2.06-49.85,7.64-49.22,36.37.48,22.12,18.72,30.18,32.5,30.18,15.29,0,25.75-3.92,32.15-13.43l1.62-2.96s0,0,0-.01c.05-.09.14-.14.25-.14.15,0,.28.12.28.29h0c-.56,5.39,2.13,10.41,6.43,13.16,2.15,1.38,4.71,2.19,7.47,2.19h10.61c.97,0,1.79-.7,1.94-1.66l.08-.53s10.68-63.97,13.39-78.02c4.09-21.19-15.33-32.35-45.1-32.35ZM692.5,205.24c-7.02,0-14.32-2.68-14.5-11.16-.45-20.4,30.73-12.21,39.93-19.14h0s.03-.02.04-.04c.04-.03.1-.05.16-.05.17,0,.3.14.29.3,0,.02,0,.04,0,.06h0c-1.11,9.94-5.05,30.03-25.93,30.03Z"/>
        </g>
      </g>
      <g>
        <g>
          <g>
            <path class="cls-2" d="M589.33,289.61c-.26-.03-.5-.12-.66-.36-.25-.37-.5-.74-.75-1.11-1.24-1.84-2.47-3.68-3.71-5.52-1.52-2.26-3.04-4.52-4.56-6.79-1.03-1.54-2.07-3.08-3.1-4.61-.79-1.18-1.58-2.36-2.38-3.53-.02-.04-.05-.07-.07-.11-.02-.05,0-.09.03-.12.04-.03.09-.02.12.01.04.04.07.08.1.12,1.15,1.51,2.3,3.02,3.45,4.52,1.59,2.09,3.19,4.17,4.78,6.26,1.28,1.68,2.57,3.37,3.85,5.05,1.19,1.56,2.39,3.13,3.58,4.69.19.25.29.52.21.84-.09.36-.42.66-.89.66Z"/>
            <path class="cls-2" d="M554.4,289.61c-.33-.02-.61-.16-.77-.46-.17-.32-.16-.64.06-.94.22-.31.45-.6.68-.9,1.65-2.17,3.31-4.33,4.96-6.5,1.62-2.13,3.25-4.25,4.87-6.38,1.62-2.12,3.23-4.23,4.85-6.35.13-.17.26-.34.39-.51.03-.03.05-.07.09-.1.04-.03.08-.04.12,0,.04.03.04.08.02.12-.03.06-.06.11-.1.16-.76,1.14-1.53,2.27-2.29,3.41-1.44,2.15-2.88,4.3-4.33,6.44-1.01,1.5-2.02,3-3.03,4.5-1.54,2.29-3.08,4.59-4.62,6.88-.06.09-.12.18-.18.26-.18.24-.42.35-.71.37Z"/>
            <path class="cls-2" d="M587.34,280.02c0,.28-.17.54-.42.63-.27.11-.52.05-.73-.15-.15-.14-.28-.31-.42-.46-1.4-1.59-2.81-3.18-4.21-4.77-1.03-1.17-2.07-2.34-3.1-3.52-1.26-1.43-2.52-2.86-3.78-4.3-.1-.11-.19-.22-.29-.33-.04-.05-.07-.1-.01-.15.05-.05.1-.02.15.02.03.03.05.05.08.08.77.76,1.53,1.53,2.3,2.29,1.72,1.71,3.44,3.42,5.16,5.13.47.47.94.94,1.42,1.41,1.21,1.2,2.42,2.4,3.63,3.6.15.15.24.32.24.52Z"/>
            <path class="cls-2" d="M556.43,280.03c0-.21.08-.37.22-.51.74-.73,1.48-1.47,2.22-2.2,1.34-1.33,2.68-2.67,4.02-4,.52-.52,1.04-1.04,1.56-1.55,1.57-1.56,3.14-3.13,4.72-4.69.03-.03.06-.06.1-.09.04-.03.08-.04.12,0,.04.04.04.08.01.12-.02.04-.05.07-.08.1-1.18,1.34-2.36,2.67-3.54,4.01-1.4,1.59-2.8,3.17-4.2,4.76-.94,1.06-1.88,2.13-2.81,3.19-.39.44-.77.88-1.16,1.31-.3.33-.77.3-1.04-.03-.1-.12-.14-.26-.13-.41Z"/>
            <path class="cls-2" d="M583.62,274.63c-.15,0-.3-.06-.43-.18-.7-.63-1.39-1.27-2.09-1.9-1.04-.94-2.08-1.89-3.13-2.83-1.11-1-2.21-2.01-3.32-3.01-.04-.03-.07-.07-.11-.1-.04-.04-.04-.09-.01-.14.04-.06.1-.06.15-.04.06.03.12.08.17.12.83.62,1.65,1.25,2.48,1.88,1.46,1.1,2.92,2.2,4.37,3.31.75.56,1.49,1.13,2.24,1.69.16.12.29.26.32.47.07.39-.23.75-.65.74Z"/>
            <path class="cls-2" d="M559.49,273.98c0-.22.11-.39.29-.53.63-.48,1.26-.95,1.89-1.43,1.97-1.49,3.95-2.99,5.92-4.48.46-.35.92-.7,1.38-1.05.05-.04.1-.08.17-.08.09,0,.14.08.09.16-.03.04-.06.08-.1.11-.92.83-1.84,1.67-2.76,2.5-.59.53-1.17,1.06-1.76,1.6-1.04.94-2.08,1.88-3.11,2.82-.31.28-.62.57-.93.85-.25.22-.58.23-.83.04-.17-.13-.25-.3-.24-.52Z"/>
            <path class="cls-2" d="M582.91,270.21c0,.25-.11.43-.33.55-.22.12-.44.11-.64-.02-.26-.16-.51-.33-.76-.49-2.14-1.39-4.27-2.79-6.41-4.18-.04-.03-.09-.05-.12-.09-.04-.04-.05-.1-.01-.16.03-.05.08-.08.15-.06.05.02.1.05.15.07.88.44,1.76.87,2.63,1.31,1.48.74,2.96,1.47,4.44,2.21.19.09.37.18.56.27.23.12.35.31.35.58Z"/>
            <path class="cls-2" d="M561.49,270.83c-.3,0-.55-.19-.62-.48-.07-.27.05-.57.3-.71.11-.06.22-.11.34-.17,1.3-.65,2.61-1.3,3.91-1.95,1.15-.57,2.3-1.14,3.44-1.71.04-.02.08-.04.12-.06.06-.02.11,0,.15.05.03.05.03.11-.01.16-.03.03-.07.06-.1.08-1.71,1.12-3.43,2.24-5.14,3.36-.66.43-1.32.86-1.97,1.29-.12.08-.25.14-.4.14Z"/>
            <path class="cls-2" d="M563.69,267.52c-.33,0-.59-.22-.65-.53-.05-.31.13-.63.44-.72.33-.09.66-.15.99-.22,1.46-.32,2.91-.64,4.37-.96.06-.01.12-.03.19-.03.05,0,.1.02.12.07.02.06,0,.11-.05.15-.04.03-.09.05-.13.07-1.64.69-3.28,1.38-4.93,2.07-.12.05-.23.11-.35.1Z"/>
            <path class="cls-2" d="M580.73,266.89c-.01.46-.44.75-.87.59-.28-.11-.56-.23-.83-.35-1.41-.59-2.81-1.18-4.22-1.77-.17-.07-.21-.12-.19-.21.03-.08.1-.1.26-.06.91.2,1.81.4,2.72.6.85.19,1.7.38,2.55.56.21.05.39.14.5.34.06.1.08.21.07.31Z"/>
            <path class="cls-2" d="M578.94,264.13c.08,0,.15,0,.21,0,.24,0,.42.19.42.42,0,.23-.18.41-.43.4-.3,0-.6-.03-.9-.05-.25-.02-.5-.04-.75-.06-.66-.04-1.33-.08-1.99-.13-.25-.02-.5-.04-.75-.06-.14-.01-.21-.09-.21-.19,0-.1.08-.17.21-.18.08,0,.16,0,.24,0,.5-.02.99-.03,1.49-.05.7-.03,1.4-.06,2.11-.08.13,0,.25-.02.36-.03Z"/>
            <path class="cls-2" d="M564.81,264.14c.75.02,1.49.05,2.24.07.63.02,1.27.05,1.9.07.05,0,.1,0,.15.02.08.03.13.1.13.19,0,.09-.06.15-.15.16-.11.01-.22.02-.34.03-.65.04-1.3.08-1.95.13-.68.05-1.35.09-2.02.14-.04,0-.09,0-.13,0-.25,0-.42-.17-.42-.41,0-.24.17-.41.42-.41.06,0,.13,0,.19,0,0,0,0,0,0,0Z"/>
            <path class="cls-2" d="M578.15,262.49c0,.18-.12.34-.31.4-.34.1-.67.19-1.01.29-.71.2-1.41.4-2.12.6-.05.02-.11.04-.16.04-.09,0-.16-.04-.19-.13-.03-.08,0-.15.06-.2.04-.03.1-.06.15-.08.97-.42,1.93-.84,2.9-1.26.13-.06.25-.11.4-.06.17.06.29.22.29.4Z"/>
            <path class="cls-2" d="M566.07,262.07s.11.03.17.06c.98.43,1.97.85,2.95,1.28.05.02.1.05.15.08.08.06.08.14.05.22-.03.08-.1.11-.18.11-.05,0-.1-.02-.15-.03-1.01-.29-2.03-.57-3.04-.86-.06-.02-.12-.03-.18-.06-.17-.08-.26-.27-.22-.45.04-.19.21-.33.44-.34Z"/>
            <path class="cls-2" d="M576.4,260.8c.19,0,.33.1.39.26.06.16.02.35-.11.46-.05.04-.11.08-.17.12-.72.44-1.44.88-2.15,1.31-.03.02-.06.04-.1.06-.1.05-.2.03-.26-.04-.06-.08-.05-.19.04-.27.06-.06.13-.12.2-.17.62-.53,1.24-1.06,1.85-1.6.09-.08.19-.14.31-.13Z"/>
            <path class="cls-2" d="M566.95,261.21c0-.16.07-.28.2-.36.15-.08.31-.08.44.02.13.1.25.21.38.31.56.48,1.12.97,1.68,1.45.03.03.07.06.1.09.07.08.07.17.02.24-.06.08-.14.08-.22.06-.04-.01-.08-.04-.12-.06-.75-.46-1.5-.91-2.25-1.37-.14-.09-.23-.21-.23-.38Z"/>
            <path class="cls-2" d="M575.26,260.02c.15,0,.28.08.35.24.08.17.05.33-.08.47-.11.13-.24.24-.35.37-.42.44-.83.87-1.25,1.31-.02.02-.04.05-.07.07-.08.06-.18.06-.24,0-.07-.05-.09-.15-.04-.24.01-.03.03-.05.05-.08.41-.63.82-1.27,1.22-1.9.09-.14.21-.23.41-.23Z"/>
            <path class="cls-2" d="M568.12,260.45c0-.19.09-.34.25-.4.17-.06.32-.04.45.09.04.04.07.09.1.13.4.62.8,1.24,1.2,1.86.02.03.04.05.05.08.05.1.03.2-.04.26-.08.06-.18.05-.27-.04-.13-.13-.25-.26-.38-.39-.39-.41-.79-.82-1.18-1.24-.1-.11-.2-.21-.19-.36Z"/>
            <path class="cls-2" d="M571.7,260.56c0,.35,0,.69,0,1.04,0,.05,0,.1,0,.15-.02.09-.08.15-.17.16-.09.01-.16-.03-.19-.12-.02-.05-.03-.1-.04-.15-.13-.68-.27-1.35-.4-2.03-.01-.07-.02-.14-.02-.21,0-.21.14-.37.33-.4.22-.03.41.08.47.28.02.07.03.15.03.22,0,.35,0,.7,0,1.05,0,0,0,0,0,0Z"/>
            <path class="cls-2" d="M572.08,260.79c0-.41,0-.82-.02-1.22,0-.07,0-.14.01-.21.05-.26.25-.41.5-.36.22.04.36.26.31.5-.12.63-.25,1.27-.37,1.9-.02.09-.04.17-.05.26-.03.17-.1.25-.21.24-.12,0-.17-.09-.17-.28,0-.28,0-.55,0-.83Z"/>
            <path class="cls-2" d="M570.05,259.52c.21,0,.37.12.41.33.09.45.17.91.26,1.37.04.19.08.38.11.57.03.18,0,.27-.12.29-.12.03-.19-.02-.26-.18-.26-.59-.51-1.19-.77-1.78-.08-.18-.06-.34.08-.48.08-.08.17-.12.29-.12Z"/>
            <path class="cls-2" d="M574.12,259.94c0,.06-.02.13-.04.19-.26.6-.52,1.2-.78,1.79-.01.03-.03.07-.05.1-.05.07-.13.08-.2.06-.07-.02-.12-.07-.13-.15,0-.04,0-.08,0-.11.12-.65.24-1.3.37-1.96.04-.22.21-.35.42-.35.23,0,.4.19.4.42Z"/>
          </g>
          <path class="cls-2" d="M571.58,320.28s.95.32,1.16-.85c.48-.05,1.16.11.69.9-.48.79-1.53.95-2.38.58-.85-.37-1.64-1.37-.9-2.75.74-1.37,2.85-1.16,3.59-.58.32.21,1.06-.16,1.06-.42,0,0-.95-1-1.9-.95-.95.05-1.64-.26-1.48-1,.16-.74,1.69-.58,2.33-.42.05-.42.37-.69-.37-.85-.74-.16-1.57-.45-1-.95.6-.53.58-1,.11-1.59-.48-.58-.53-1.8-.05-2.33-1.11.63-1.48,1.69-1.11,2.33.37.63-.31.78-.58,1.22-.14.23-.11.69.21,1.06,0,0-1.32.79-1.32,1.69s.74,1.16.74,1.16c0,0-2.48.48-2.22,3.07.26,2.59,3.33,2.7,3.7,3.54.15.22.29.27.48.16.29-.14.34-.96,1.39-1.51.5-.18,1.67-1.14,1.47-2.3-.18-1.05-1.37-1.69-2.64-1.64-1.47.06-2.69,1.71-.95,2.43Z"/>
          <g>
            <path class="cls-2" d="M560.35,327.21h3.75c1.36,0,2.22.34,2.76.88.46.46.7,1.03.7,1.82v.02c0,1.12-.58,1.9-1.51,2.34l1.79,2.61h-2.93l-1.45-2.19h-.55v2.19h-2.56v-7.67ZM564.02,330.86c.61,0,.99-.27.99-.74v-.02c0-.49-.38-.73-.98-.73h-1.12v1.5h1.11Z"/>
            <path class="cls-2" d="M568.01,331.07v-.02c0-2.29,1.81-4,4.23-4,1.31,0,2.38.44,3.21,1.16l-1.44,1.73c-.5-.43-1.06-.67-1.7-.67-1,0-1.72.77-1.72,1.81v.02c0,1.08.76,1.83,1.83,1.83.44,0,.68-.07.88-.18v-.77h-1.32v-1.64h3.71v3.55c-.83.68-1.99,1.15-3.39,1.15-2.39,0-4.31-1.6-4.31-3.98Z"/>
            <path class="cls-2" d="M576.27,331.07v-.02c0-2.29,1.79-4,4.08-4,1.69,0,2.83.82,3.47,1.99l-2.11,1.24c-.29-.55-.69-.93-1.39-.93-.87,0-1.44.76-1.44,1.68v.02c0,1,.59,1.7,1.44,1.7.72,0,1.13-.39,1.45-.96l2.11,1.19c-.65,1.14-1.72,2.07-3.63,2.07-2.13,0-3.98-1.6-3.98-3.98Z"/>
          </g>
          <g>
            <path class="cls-2" d="M571.88,280.51c.29,0,.53-.24.53-.53s-.24-.53-.53-.53-.53.24-.53.53.24.53.53.53ZM571.88,279.66c.17,0,.31.14.31.31s-.14.31-.31.31-.31-.14-.31-.31.14-.31.31-.31Z"/>
            <path class="cls-2" d="M572.83,302.54c0-.53-.42-.96-.94-.98h0s-.01,0-.02,0c0,0-.01,0-.02,0h0c-.52.02-.94.45-.94.98s.42.96.94.98h0s.01,0,.02,0c0,0,.01,0,.02,0h0c.52-.02.94-.45.94-.98ZM571.87,303.29c-.41,0-.74-.34-.74-.76s.33-.75.74-.76c.41,0,.74.34.74.76s-.33.75-.74.76Z"/>
            <path class="cls-2" d="M594.68,316.41c-.24-.21-.67-.48-1.13-.2,0,0-.13-.19-.06-.3,0,0,.01,0,.02,0l1.47-.18s.02,0,.03.01c.04.04.05.16.05.23,0,.05.03.1.08.11.05.01.1,0,.13-.05l.36-.6c1.01-.75.38-2.29.35-2.36-.02-.05-.08-.08-.13-.06-.05.02-.09.07-.08.13.07.34-.13.59-.27.72l-.43-.99s-.05-.06-.1-.07h-.16c.14-.39.02-.8-.08-1.03.37-.03.59-.33.66-.52.28-1.11-.7-1.85-.74-1.88-.04-.03-.1-.03-.14,0-.04.03-.05.09-.03.14.07.12.09.23.06.3-.01.03-.03.05-.05.06-.59-.48-.34-1.12-.33-1.15.02-.04,0-.08-.02-.11s-.07-.04-.11-.03l-.11.03c.07-.86-.67-1.42-.7-1.44-.04-.03-.1-.03-.14,0-.04.04-.05.09-.02.14.11.19.15.37.1.54-.09.33-.42.52-.42.52-.74.35-.95,1.03-1.01,1.51-.08-.08-.15-.13-.15-.13-.04-.03-.09-.02-.12,0-.04.03-.05.07-.04.12.06.25-.24.67-.37.81-.27.3-.43.85-.5,1.16l-.16-.19s-.09-.05-.13-.03c-.05.02-.07.07-.06.12.03.18-.31.58-.56.8-1.16.84-.88,1.96-.88,1.96,0,.13-.03.21-.07.26-.09-.31-.42-.46-.44-.46-.04-.02-.08-.01-.11.01-.03.02-.05.06-.04.1.07.54-.64,1.2-.66,1.22-.37.48-.47,1.12-.49,1.56-.17-.16-.38-.23-.39-.24-.05-.02-.11,0-.14.05-.02.05-.01.11.03.14,0,0,.08.09,0,.45-.02.07-.06.19-.12.34-.03.08-.06.17-.1.26-.1.16-.32.41-.73.56.09-.17.1-.36.08-.47,0-.04-.04-.07-.07-.09-.04-.01-.08,0-.11.02-.09.09-.22.14-.34.18.44-.43.67-1.06.68-1.1.01-.04,0-.07-.02-.1-.02-.03-.06-.05-.1-.04h-.09c.54-.44.58-1.25.58-1.26,0-.03-.01-.07-.04-.09-.03-.02-.06-.03-.09-.02l-.12.03c.42-.37.56-.85.57-.88,0-.03,0-.07-.02-.1-.02-.03-.05-.04-.09-.05h-.09c.51-.42.58-1.28.58-1.33,0-.04-.01-.07-.04-.09-.03-.02-.07-.03-.1-.02l-.25.07c.59-.58.62-1.28.62-1.29,0-.03-.01-.07-.04-.09-.03-.02-.06-.03-.1-.02l-.11.03c.56-.6.43-1.54.43-1.55,0-.04-.04-.08-.08-.09-.04-.01-.09,0-.11.03-.1.11-.25.22-.43.31.83-.77.75-1.7.75-1.71,0-.03-.02-.06-.05-.08-.03-.02-.06-.03-.09-.02l-.38.08c.82-.73.6-1.77.6-1.79,0-.03-.03-.06-.06-.08-.03-.01-.07-.01-.1,0l-.12.06c.39-.87.24-1.91.23-1.96,0-.03-.03-.07-.06-.08-.03-.02-.07-.02-.1,0l-.24.12c.57-1.2-.33-2.48-.34-2.5-.03-.04-.09-.06-.14-.03-.05.03-.07.08-.05.13.01.03.24.73-.43,1.1-.01,0-1.32.46-1.32,1.87-.1-.1-.22-.18-.39-.2-.04,0-.08.01-.1.04s-.03.07-.01.11c0,0,.11.27-.05.45-.01.01-.17.18-.26.42-.29-.87-.7-1.53-.96-1.89l1.93-1.97s.03-.05.03-.08-.01-.06-.03-.08l-1.96-1.91s-.11-.04-.16,0l-.11.11h0s-.8,0-.8,0c.9-1.36.17-2.31.16-2.32-.02-.03-.05-.04-.09-.04h-.14c-.06-.63-.81-1.26-.84-1.28-.03-.03-.07-.03-.11-.02-.02,0-.18.08-.38.23l-3.61-3.51s-.05-.03-.08-.03h-.97l1.86-1.91s.04-.11,0-.15l-.83-.85-.03-.1c-.47-5.3-2.68-9.01-2.89-9.37v-.92c.34-.16.45-.5.45-.5,0-.03,0-.05,0-.08,0-.02-.16-.37-.45-.54v-.47c.05-1.82-.34-4.98-.34-5.02l-1.51-9.32c0-.05-.05-.09-.11-.09h-.08c-.05,0-.1.04-.11.09l-1.51,9.32s-.39,3.19-.34,5.01v.47c-.29.17-.45.53-.45.54-.01.02-.01.05,0,.08,0,0,.12.35.46.5v.92c-.22.36-2.42,4.07-2.89,9.35l-.03.13-.82.84s-.04.11,0,.15l1.86,1.91h-.95s-.06.01-.08.03l-3.62,3.53c-.2-.16-.38-.24-.4-.25-.04-.01-.08,0-.11.02-.03.03-.78.65-.84,1.28h-.14s-.07.02-.09.04c0,0-.74.96.16,2.32h-.9l-.1-.1s-.11-.04-.16,0l-1.96,1.91s-.03.05-.03.08.01.06.03.08l1.96,2s.03.01.04.02c-.25.36-.64,1-.92,1.84-.1-.24-.25-.41-.26-.42-.16-.18-.05-.45-.05-.45.01-.04,0-.08-.01-.11-.02-.03-.06-.05-.1-.04-.16.01-.29.1-.39.2,0-1.4-1.3-1.86-1.3-1.86h0c-.69-.38-.46-1.07-.45-1.1.02-.05,0-.11-.05-.13-.05-.03-.11-.01-.14.03-.01.01-.92,1.29-.34,2.5l-.24-.12s-.07-.01-.1,0c-.03.02-.05.05-.06.08,0,.05-.16,1.09.23,1.96l-.12-.06s-.07-.01-.1,0c-.03.01-.05.04-.06.08,0,.01-.22,1.06.6,1.79l-.38-.08s-.06,0-.09.02c-.03.02-.04.05-.05.08,0,.01-.09.94.75,1.71-.18-.1-.34-.2-.43-.31-.03-.03-.07-.05-.11-.03-.04.01-.07.05-.08.09,0,.01-.13.95.43,1.55l-.11-.03s-.07,0-.1.02-.04.05-.04.09c0,.01.03.72.62,1.29l-.25-.07s-.07,0-.1.02c-.03.02-.04.06-.04.09,0,.05.07.91.58,1.33h-.09s-.07.02-.09.05c-.02.03-.03.06-.02.1,0,.03.15.51.57.88l-.12-.03s-.07,0-.09.02c-.03.02-.04.05-.04.09,0,.01.04.81.58,1.26h-.09s-.07,0-.1.03c-.02.03-.03.07-.02.1.01.04.24.67.67,1.09-.12-.04-.25-.09-.34-.17-.03-.03-.07-.04-.11-.02-.04.01-.07.05-.07.09-.02.11-.01.3.08.47-.4-.15-.62-.4-.73-.56-.04-.09-.07-.18-.1-.26-.06-.15-.11-.27-.12-.34-.08-.35,0-.45,0-.45h0s.06-.09.04-.14c-.02-.05-.08-.07-.14-.06-.02,0-.22.08-.39.24-.02-.44-.12-1.08-.5-1.57,0,0-.72-.67-.65-1.2,0-.04-.01-.08-.04-.1-.03-.02-.07-.03-.11-.01-.02,0-.35.15-.44.47-.04-.04-.08-.12-.07-.24,0-.01.29-1.14-.87-1.97-.25-.23-.6-.63-.56-.8,0-.05-.02-.1-.06-.12-.05-.02-.1,0-.13.03l-.16.19c-.07-.31-.22-.86-.5-1.16-.12-.14-.43-.55-.37-.81.01-.04,0-.09-.04-.12-.04-.03-.09-.03-.12,0,0,0-.08.05-.15.13-.06-.48-.27-1.16-1-1.51,0,0-.34-.2-.43-.53-.05-.17-.01-.36.1-.54.03-.05.02-.1-.02-.14-.04-.04-.1-.04-.14,0-.03.03-.77.59-.7,1.44l-.11-.03s-.08,0-.11.03c-.03.03-.04.08-.02.11,0,0,.26.67-.33,1.15-.02-.01-.03-.03-.05-.06-.03-.07,0-.17.06-.3.02-.05.01-.1-.03-.14-.04-.03-.1-.04-.14,0-.04.03-1.02.77-.74,1.89.07.18.28.48.66.51-.1.23-.22.64-.08,1.02h-.16s-.08.03-.1.07l-.43.99c-.13-.13-.33-.38-.27-.72.01-.06-.02-.11-.08-.13-.05-.02-.11.01-.13.06-.03.07-.66,1.61.35,2.36l.36.6s.08.06.13.05c.05-.02.08-.06.08-.11,0-.06,0-.18.05-.23,0,0,.01-.01.01-.01l1.48.18s.01,0,.02,0c.08.11-.06.3-.06.3-.46-.28-.89,0-1.13.2-.53.24-1.1.17-1.11.17h-.06s.23.17.52.17c.25,0,.55-.05.84-.2.32,0,.54.09.54.09l-.61.4c-.34-.21-.29.12-.29.12.07.21.02.27.02.27-.09.54.48.86.48.86.22.18.07.39.07.39-.01.26.12.24.12.24.43-.13.23-.87.23-.87.11-.51,1.11-.54,1.11-.54.27.14.41.37.49.61-.14.08-.43.21-.74.13h-.06c.13.04.3.14.41.14.18,0,.33-.04.44-.07.02.11.03.22.03.33,0,0-.01,0-.02,0-.06,0-.11.05-.11.11-.02.69-.86,2.22-.87,2.26-.71,1.94-.17,3.09-.06,3.31l-.04.42c-.22.62.05,1.11.13,1.23.03,1.2.95,1.47,1.22,1.52.11.26.47.55.85.68.33.11.4.32.41.33.02.05.06.08.1.08,0,0,0,0,0,0,0,0,0,0,0,0h0s0,0,0,0c0,0,0,0,.01,0,0,0,0,0,0,0,.05-.01.08-.05.08-.1,0-.3-.08-.51-.18-.65.61.65,2.24,2.12,4.44,2.22,0,0,0,0,0,0,.06,0,.11-.05.11-.11,0-.06-.04-.11-.1-.12-2.5-.12-4.24-2.08-4.51-2.4l.03-.09c.23-.05.44-.12.65-.2.32.31,1.58,1.43,3.43,1.67,0,0,0,0,.01,0,.05,0,.1-.04.11-.1,0-.06-.03-.12-.1-.12-1.65-.21-2.83-1.18-3.23-1.54,1.29-.55,2.05-1.48,2.16-1.64.41.41.99.87,1.7,1.14.01,0,.03,0,.04,0,.04,0,.09-.03.1-.07.02-.06,0-.12-.06-.14-1.46-.55-2.34-1.97-2.35-1.97-.4-1.06.7-1.52.76-1.54.41-.22.74-.5.95-.69.14-.14.26-.28.34-.42.02-.03.03-.07.05-.1.27,1.55,1.12,2.11,1.75,2.31-.91.07-1.32-.19-1.45-.31-.02-.02-.04-.04-.06-.06-.04-.04-.1-.05-.15-.01-.05.04-.05.1-.02.15,0,0,.03.04.08.09,1.59,1.68,2.9,2.1,3.81,2.1.23,0,.43-.03.6-.07-.06.01-.11.03-.18.04,0,0,1.43-.02,2.52-1.48,0,0,1.76-2.72-1.1-5.17,0,0-.23-.11-.44-.07,0,0-.24.02-.52-.13-1.64-1.18-2.05-3.95-2.15-5.54h0s0,0,0,0c-.03-.54-.03-.94-.03-1.09.29-.12,1.55-.55,2.13.35.02.32.09,1,.4,1.04.04.01.1.01.15-.02.12-.07.17-.26.17-.59,0-.03.01-.62.59-.73.01,0,.69,0,.76-.98,0-.03,0-.06-.03-.08s-.05-.04-.08-.04h-.19c.01-.1.04-.24.13-.32.01,0,.31-.21.31-.72,0-.05-.03-.09-.08-.11-.05-.01-.1,0-.12.04-.07.1-.27.33-.49.39,0-.47.34-.63.36-.64l.4-.21c.27-.13.43-.3.5-.51.09-.28-.04-.53-.05-.54-.03-.05-.08-.07-.13-.05h-.03c.06-.19.18-.32.19-.32.14-.15.21-.3.19-.46-.01-.16-.11-.28-.17-.34.07-.52.73-.62.78-.64.53-.22.56-.8.49-1.07,0-.03-.02-.05-.05-.07-.03-.02-.06-.02-.08-.01l-.11.03c.02-.17.11-.32.14-.36.26-.2.28-.59.28-.74h3.4c.07.14.19.3.38.44.02.02.05.03.08.02.03,0,.06-.02.07-.04l.12-.16c.07.44.33,1.25,1.18,1.36.85-.11,1.08-.92,1.15-1.36l.12.16s.04.04.07.04c.03,0,.06,0,.08-.02.19-.15.3-.3.38-.44h3.42c0,.15.02.55.28.74.03.04.13.18.14.36l-.11-.03s-.06,0-.08.01c-.03.02-.04.04-.05.07-.06.27-.04.85.52,1.08.03,0,.69.11.76.63-.06.06-.16.18-.17.34-.01.16.05.31.2.46,0,0,.13.13.19.32h-.03c-.05-.02-.1,0-.13.04,0,0-.14.25-.05.54.07.21.24.38.5.51l.41.21s.36.18.36.64c-.22-.06-.42-.29-.49-.39-.03-.04-.08-.06-.12-.04-.05.01-.08.06-.08.11,0,.5.29.7.29.7.1.09.13.24.14.34h-.19s-.06.01-.08.04-.03.05-.03.08c.07.98.74.99.74.98.6.12.61.71.61.74,0,.33.05.52.17.59.05.03.11.03.15.02.31-.04.38-.72.4-1.04.58-.9,1.84-.47,2.13-.35,0,.15,0,.56-.03,1.09,0,0,0,0,0,0h0c-.1,1.59-.5,4.36-2.15,5.54-.29.15-.52.13-.52.13-.21-.04-.44.07-.44.07-2.86,2.45-1.1,5.17-1.1,5.17,1.09,1.46,2.52,1.48,2.52,1.48-.07-.01-.12-.02-.18-.04.18.04.38.07.6.07.92,0,2.22-.43,3.81-2.1.05-.05.08-.08.08-.09.03-.05.02-.11-.02-.15-.04-.04-.11-.03-.15.01-.02.02-.04.04-.06.06-.13.12-.53.38-1.45.31.64-.2,1.48-.76,1.75-2.31.02.03.03.07.05.1.08.14.19.28.34.42.21.2.54.48.96.7.05.02,1.14.48.76,1.52,0,.01-.89,1.43-2.36,1.99-.06.02-.09.09-.06.14.02.04.06.07.1.07.01,0,.03,0,.04,0,.71-.27,1.28-.72,1.7-1.14.12.15.87,1.08,2.17,1.64-.4.36-1.58,1.33-3.23,1.54-.06,0-.1.06-.1.12,0,.06.05.1.11.1,0,0,0,0,.01,0,1.85-.24,3.11-1.36,3.43-1.67.2.08.42.14.65.2l.03.09c-.27.32-2.01,2.28-4.51,2.4-.06,0-.11.05-.1.12,0,.06.05.11.11.11,0,0,0,0,0,0,2.2-.11,3.82-1.58,4.44-2.22-.1.15-.18.36-.18.65,0,.05.04.09.08.1,0,0,0,0,0,0,0,0,0,0,0,0,0,0,0,0,.01,0h0s0,0,0,0c0,0,0,0,0,0,.05,0,.09-.03.11-.08,0,0,.08-.22.41-.33.38-.13.74-.42.85-.68.27-.05,1.19-.32,1.22-1.52.08-.13.35-.61.13-1.21l-.05-.44c.11-.21.65-1.37-.07-3.32,0-.02-.84-1.55-.87-2.24,0-.06-.06-.12-.11-.11,0,0-.01,0-.02,0,0-.11,0-.22.03-.33.1.04.25.07.44.07.11,0,.29-.11.41-.14h-.06c-.31.09-.6-.04-.74-.13.08-.24.23-.46.49-.61,0,0,1,.02,1.11.54,0,0-.2.73.23.87,0,0,.13.01.12-.24,0,0-.15-.21.07-.39,0,0,.56-.32.48-.86,0,0-.05-.06.02-.27,0,0,.05-.33-.29-.12l-.61-.4s.21-.09.54-.09c.29.15.6.2.84.2.29,0,.51-.16.52-.17h-.06s-.57.07-1.11-.17ZM595.91,313.65c.09.45.12,1.11-.33,1.52-.33.11-1.85.59-2.48.32,0,0,.22-.31.75-.21,0,0,.44.17.77-.36,0,0,.23.26.32.24,0,0,.16.09.18-.24,0,0-.03-.37.37-.8,0,0,.02,0,.02,0,.02-.01.26-.18.4-.47ZM592.92,314.5c-.13-.39.19-.69.19-.69,0,0,.29.08.23-.27-.05-.26.1-.46.18-.54.02.12.03.26.02.34,0,.05.02.09.07.11.25.11.61.33.65.47.01.05.06.09.11.09,0,0,.02,0,.02,0,0,0,0,0,0,0,.31.77-.31,1.08-.31,1.08-.01,0-.03-.01-.04-.02.12-.11.19-.27.19-.45,0-.34-.28-.62-.62-.62s-.62.28-.62.62c0,.19.08.35.21.46-.08.03-.13.05-.13.05-.36-.17-.25-.51-.25-.51.17.1.08-.12.08-.12ZM594.58,312.02c.07.23.11.55-.05.81-.02.03-.02.08,0,.11s.05.06.09.06h.26s0,.02,0,.02l-.49.71c-.15-.21-.48-.39-.64-.46,0-.19-.05-.47-.05-.49,0,0,0,0,0,0,.1-.15.43-.29.43-.29.2-.11.37-.35.44-.47ZM593.22,314.61c0-.22.18-.4.4-.4s.4.18.4.4c0,.17-.1.31-.25.37-.08,0-.16,0-.23.01-.18-.04-.31-.19-.31-.38ZM594.74,309.89s.02-.07.03-.11c.25.28.56.77.4,1.4,0,.02-.17.43-.6.36-.11-.02-.21-.09-.31-.23,0,0-.28.05-.27.33l-.04-.28c.09-.22.23-.43.38-.6.26-.27.27-.56.26-.7.05-.03.11-.08.14-.17ZM594.38,310.05c.01.08.03.32-.2.55-.17.18-.32.41-.42.65h-.02s-.06-.13-.21-.21c0,0-.18.85-.81,1.11,0,0-.59.38-.73.55l-.43-.24c.27-.69.8-1.27.8-1.28.26-.29.33-.62.34-.81.15.1.17.28.17.29,0,.05.04.08.08.1.04.01.09,0,.12-.05.23-.33.22-.72.21-.72.07-.64.43-.96.61-1.09-.04.29,0,.78.48,1.16ZM592.17,319.2h0l-.5-.11h0c.31-.03.5.11.5.11ZM592.04,319.37l-.1.13-.19-.3.19.3.1-.13ZM592,318.62l-.37-.33.39-.07-.02.4ZM592.1,321.03c.83,1.14.59,2.86.59,2.88-.04.2-.06.37-.08.51-.08.09-.16.19-.24.31-.05.03-.11.07-.19.11.09-.55.22-2.28-1.17-3.79-.04-.05-.1-.11-.16-.19,0,0,0-.01,0-.02,0-.05-.04-.07-.08-.09-.07-.09-.15-.2-.22-.3.39.04.69-.13.7-.14h-.11s-.32,0-.7-.1c0,0-.02,0-.05,0-.07-.12-.12-.23-.15-.33.08-.05.19-.11.22-.03,0,0-.01.24.13.22,0,0,.29-.02.29-.49,0,0,.07-.48.38-.27,0,.01-.01.03,0,.04.14.73.81,1.66.84,1.7ZM592.57,325.01c0,.06.05.1.11.1,0,0,0,0,0,0,.06,0,.11-.06.1-.12,0,0,0-.13.03-.48.09-.1.18-.19.26-.26,0,.02-.01.03-.01.05l.05.5c.14.41.04.74-.04.92-.08,0-.21,0-.37.05-.07-.01-.13-.03-.18-.07-.17-.11-.22-.32-.23-.39.07-.18.16-.35.27-.5,0,.13,0,.19,0,.19ZM592.96,326.24c-.23.09-.6.36-.51.83-.17.12-.35.17-.45.19-.01-.44.09-.78.31-1.01.13-.13.29-.21.43-.25.08,0,.16,0,.24-.02,0,.09-.01.18-.03.25ZM591.24,326.37c-.48,0-.57-.39-.57-.39.21-.42.69-.17.69-.17.12.07.18-.03.18-.03.13-.12-.08-.32-.08-.32.86-.14.69.56.69.56-.38.19-.49.85-.49.85-.39.16-.58-.11-.58-.11l.19-.12c.18-.13-.04-.27-.04-.27ZM588.16,320.8s-.05-.06-.09-.07c-.69-.1-.94-.68-.95-.69-.15-.65.45-.92.47-.93.03-.01.05-.04.06-.07,0,0,0-.02,0-.02.13.01.35.06.36.21,0,0,.52.79,1.16.87,0,.04,0,.08.02.12.15.5,1.1.84,1.42.94-.01.1-.04.22-.09.34-.44-.4-1.08-.39-1.21-.38l-.02-.12s-.03-.06-.06-.08c-.03-.02-.07-.01-.1,0-.5.27-.88.14-1.05.05l.05-.06s.03-.07.02-.11ZM588.46,315.28c.05.37.34.62.54.73.03.02.07.02.11,0s.05-.05.06-.09c.05-.81.54-1.37.84-1.71.08-.09.14-.16.18-.22.09-.13.12-.28.12-.41l.08.08s.05.03.09.03c.03,0,.06-.02.08-.04.17-.23.16-.49.16-.5-.02-.55.11-.81.23-.93.04-.05.09-.07.12-.09.01.24.1.45.21.62,0,0,0,0,0,0,.1.16.22.28.3.36.02.1.03.2.01.25l-.4.5s-.02.18.09.34c0,0,.42.5-.05.68,0,0,0-.39-.2-.59,0,0-.23.52-.52.72-.29.19-.99.59-.58,1.25,0,0,.12.61-.24.87,0,0-.2-.24-.28-.21,0,0-.15.23-.13.36,0,0-.34-.28-.1-.49,0,0,.98.07.24-1.03,0,0,.24.78-.26.73,0,0-.18.1-.18.29,0,0-.1-.2-.32-.07-.22.12-.07.27-.07.27,0,0,0,.55-.43.81,0,0-.52.45-.6.97-.32-.79.35-1.7.36-1.71,0,0,.01-.02.02-.03.07-.19.08-.35.07-.47l.14.07s.07.02.11,0c.03-.02.05-.05.06-.09v-.37c-.03-.42.06-.71.16-.9ZM592.07,315.52l-.27.48c-.43-.11-.61-.67-.61-.67l.6-.63c.17.39.04.77.04.77.03.19.24.06.24.06ZM590.69,317.67l-.17-.04h-.22s-.67-.57-.04-.58l.57.61h-.15ZM590.46,319.28c-.09-.54.3-1.06.3-1.06.38,1.23-.3,1.06-.3,1.06ZM590.64,320.92s0,0,0,.01c-.24-.08-.6-.22-.87-.4.11-.13.34-.15.49-.14.12.2.26.38.37.53ZM589.03,318.3s-.09.15.27.18c.36.04.46.32.46.32,0,0,.39.17.02.54,0,0,0,0,0,0,.02-.05.03-.11.03-.16-.01-.25-.22-.46-.48-.45-.12,0-.24.06-.32.15-.08.09-.13.21-.12.33,0,.12.06.24.15.32.06.05.12.08.2.1-.1,0-.19-.02-.28-.1,0,0-.34-.23-.06-.73,0,0,.13-.1.11-.28-.02-.17.04-.23.04-.23ZM589.15,317.96l.4-.62s.09.43.09.55,0,.16.12.16l.1.02-.14.34s-.58-.25-.58-.45ZM589.34,319.44c-.06,0-.13-.02-.17-.06-.05-.04-.08-.1-.08-.17h0c0-.06.02-.13.06-.17.04-.05.1-.08.17-.08,0,0,0,0,0,0,.13,0,.24.1.24.23,0,.13-.1.25-.23.25ZM589.41,320.1l.63-.16c.02.07.06.15.1.24-.19,0-.41.06-.54.23-.09-.08-.16-.16-.18-.25,0-.02,0-.04,0-.06ZM589.9,319.53s0-.49.45-.16l-.45.16ZM588.66,319.51l-.5-.48c.49,0,.5.48.5.48ZM590.43,321.7c-.03.05-.08.1-.12.14-.23-.21-.44-.37-.62-.49.24.03.53.12.75.35ZM590.64,321.79s0,0,0,0c.03-.02.04-.05.04-.08.09-.18.14-.37.16-.53,0,0,0,0,0,0,1.48,1.6,1.15,3.47,1.1,3.73-.14.04-.3.07-.5.09.24-1.37-.36-2.37-.98-3.01.07-.07.12-.14.17-.21ZM590.91,316.76c0-.16.13-.29.29-.29s.29.13.29.29-.13.29-.29.29-.29-.13-.29-.29ZM591.2,316.25c-.28,0-.52.23-.52.52,0,.15.07.29.17.38-.01,0-.02,0-.02,0-.25-.05-.21-.28-.25-.4-.04-.13.1-.43.28-.66.18-.23.07-.42.07-.42l.34.23c.19.02.28.19.28.19.04.3.19.29.19.29.35.45-.07.63-.07.63-.01,0-.03.01-.05.02.05-.08.08-.16.08-.26,0-.28-.23-.52-.52-.52ZM592.06,316.93l.26.23-.55.1.29-.33ZM592.15,315.37l-.03-.41c.89.11.55.96.55.96,0-.39-.52-.55-.52-.55ZM592.2,314.32s0-.21.38-.17l-.11.57s-.29-.23-.27-.39ZM589.78,312.69c.09-.08.46-.42.59-.74l.16.19s.07.05.11.04c.04-.01.07-.05.08-.09,0,0,.15-.9.49-1.28.04-.05.34-.39.41-.73.04.05.08.11.09.17,0,.1.01.16.01.17,0,.05.06.1.11.09.05,0,.1-.04.11-.09.01-.07,0-.14-.01-.21,0-.38.07-1.24.91-1.64.02,0,.42-.24.53-.66.02-.08.03-.16.03-.25.19.25.37.62.28,1.07,0,.02,0,.04,0,.06-.22.18-.55.55-.62,1.19,0,0,0,.19-.07.39-.07-.11-.18-.23-.38-.27-.03,0-.07,0-.1.02-.03.02-.04.06-.04.09,0,0,.04.45-.29.82-.03.03-.58.64-.86,1.38-.05-.13-.08-.27-.06-.41,0-.03,0-.06-.03-.08s-.05-.04-.08-.04c-.02,0-.21,0-.39.18-.21.22-.31.58-.3,1.1,0,0,0,.12-.05.25l-.23-.22s-.1-.04-.14-.01c-.04.03-.06.09-.04.13,0,0,.13.33-.03.56-.04.05-.1.12-.17.2-.29.33-.77.87-.87,1.65-.15-.13-.35-.37-.26-.71.13-.06.31-.22.28-.55,0,0-.25-.99.8-1.75ZM585.87,316.01c-.05.32-.23,1.04-.97,1.18-.06.01-.1.07-.09.12s.06.1.12.09l.53-.05c-.15.34-.54,1.08-1.14,1.17h-.52s-.15.02-.34.04c.19-.48.14-.99.14-1.02,0-.05-.04-.08-.08-.1-.02,0-.33-.07-.73.12.48-1.27,1.39-1.29,1.45-1.29l.64-.06v-.02s0,0,.02,0c.11-.01.21-.04.31-.07l.66-.15ZM584.45,313.31c.06.16.13.46.05.65h.01c-.28.14-.78.5-1.04,1.3.11-.6.17-1.18.2-1.66.39-.24.67-.28.78-.28ZM583.34,315.87c.22-.3.52-.32.65-.31.02.15.03.41-.04.55-.22.06-.53.19-.82.5.08-.24.15-.49.21-.74ZM586.57,313.58c-.05.34-.25,1.09-.86,1.17-.06,0-.1.06-.1.12,0,.06.05.1.11.1h.44c-.11.26-.4.77-1.01.97l-.28.06s-.01,0-.02.01l-.61.06s-.02,0-.04,0c.06-.26,0-.59,0-.63,0-.04-.04-.08-.08-.09-.01,0-.22-.04-.45.03.27-.92.89-1.22,1.06-1.28,0,0,0,0,0,0,.49-.05.87-.17,1.17-.33l.67-.19ZM587.02,310.72c0,.39-.09,1.18-.87,1.46-.06.02-.09.08-.07.14.02.06.07.09.13.08l.59-.15c-.05.29-.24.92-.97,1.32l-1.08.31c.04-.32-.11-.7-.12-.71-.01-.03-.04-.06-.08-.07-.01,0-.23-.04-.58.1v-.09c.13-.96.87-1.49.88-1.49.02-.01.03-.03.04-.05.07-.02.14-.03.21-.05.44-.12,1.42-.41,1.93-.8ZM582.55,309.14c-.18-1.58-.48-1.82-.69-1.86-.15-.03-.28.06-.38.16,0-1.2-.26-2.06-.75-2.58-.07-.07-.14-.13-.21-.18h2.06c.26.32,2.11,2.71,1.11,5.71-.26-.42-.64-.84-1.13-1.25ZM584.04,312.23c.05-.18.07-.39.06-.63-.01-.2-.06-.4-.13-.6l.45-.21.24.7c-.13.1-.4.35-.62.74ZM587.23,307.4c.03.35,0,1.25-1,1.73-.05.02-.07.08-.06.14s.07.08.13.07l.82-.18c0,.39-.2,1.59-2.04,2.12-.12.03-.21.06-.24.06l-.26-.76s-.03-.05-.06-.07c-.03-.01-.06-.01-.09,0l-.55.26c-.03-.06-.05-.12-.08-.17h.03c.14-.37.22-.73.28-1.09h0s.25-.94,1.43-1.29c1.04-.31,1.38-.62,1.49-.74l.19-.09ZM584.31,306.39c.14-.15.15-.33.14-.47.21.14.31.46.31.46.02.06.07.09.13.08.06-.01.09-.07.08-.13-.34-1.63,1.06-2.13,1.13-2.16.42-.23.56-.56.6-.84.23.5.47,1.37-.09,2.14-.03.04-.03.1,0,.14.03.04.09.05.13.03l.43-.21c.03.36.06,1.3-.38,1.96,0,.01-.01.03-.01.05-.15.13-.51.36-1.3.59-.68.21-1.08.58-1.3.9.04-.65-.04-1.25-.17-1.78h.01c-.05-.38.27-.74.28-.75ZM583.45,303.93l-1.17-1.2,1.14-1.17,1.21,1.17-1.17,1.19ZM582.81,300.98l.44.43-1.21,1.25s-.04.11,0,.15l1.25,1.28-.48.49-1.75-1.84,1.75-1.76ZM574.82,303.61l-.26-.16c.95-.1,1.07-.85,1.07-.86,0-.02,0-.03,0-.05-.11-.4-.41-.62-.71-.72h6.74l-.83.83s-.04.11,0,.15l.76.8h-6.77ZM573.71,303.91l-.68-.69c.12-.2.19-.43.19-.68,0-.28-.08-.53-.22-.75l.73-.52c.2.03.61.13.8.36l-.28.14s-.07.08-.06.13c.02.05.07.08.12.08.04,0,.88-.09,1.1.61-.03.13-.22.73-1.21.66-.05,0-.1.03-.11.08-.02.05,0,.1.05.13l.46.29c-.16.1-.48.24-.88.18ZM571.87,303.69c-.63,0-1.13-.52-1.13-1.15s.51-1.14,1.13-1.15c.63.01,1.13.52,1.13,1.15s-.51,1.14-1.13,1.15ZM570.03,303.91c-.4.06-.71-.08-.88-.18l.46-.29s.06-.08.05-.13c-.02-.05-.06-.08-.11-.08-1,.07-1.19-.53-1.21-.66.22-.69,1.06-.61,1.1-.61.05,0,.1-.03.12-.08.02-.05,0-.11-.06-.13l-.28-.14c.19-.22.6-.33.8-.36l.73.52c-.14.22-.22.47-.22.75,0,.25.07.48.19.68l-.68.69ZM568.92,303.61h-6.86l.76-.8s.04-.11,0-.15l-.83-.83h6.82c-.3.1-.59.31-.71.72,0,.01,0,.03,0,.05,0,0,.12.76,1.07.86l-.26.16ZM568.12,300.03c-.1-.29-.12-.55-.02-.78.13-.31.43-.48.53-.52.17.07.82.4.61,1.3h-1.12ZM568.66,298.5s-.05,0-.07,0c-.02,0-.49.19-.69.66-.11.26-.11.55,0,.87h-.28c.03-.06.05-.12.05-.18,0-.18-.13-.33-.3-.37,0-.02,0-.03,0-.05,0-.37.15-.63.21-.72h.19s.06-.01.08-.03c.02-.02.03-.05.03-.08-.02-.48.54-1.02.72-1.17.19.1.8.47.83,1.24,0,.03.02.07.05.09.03.02.06.03.1.01l.16-.05c.08.09.25.34.26.85-.08.07-.13.17-.13.29,0,.07.02.13.05.18h-.43c.25-1.17-.8-1.52-.81-1.53ZM565.25,300.03c-.1-.29-.12-.55-.02-.78.13-.31.43-.48.53-.52.17.07.82.4.61,1.3h-1.12ZM565.79,298.5s-.05,0-.07,0c-.02,0-.49.19-.69.66-.11.26-.11.55,0,.87h-.26c.03-.06.05-.12.05-.18,0-.18-.13-.33-.29-.37h0c-.02-.41.14-.67.21-.77h.19s.06-.01.08-.03c.02-.02.03-.05.03-.08-.02-.48.54-1.02.72-1.17.19.1.8.47.83,1.24,0,.03.02.07.05.09.03.02.06.03.1.01l.16-.05c.07.08.22.31.25.73,0,.01,0,.02,0,.04-.15.06-.26.2-.26.36,0,.07.02.13.05.18h-.34c.25-1.17-.8-1.52-.81-1.53ZM564.42,299.67c.09,0,.17.08.17.17s-.08.17-.17.17-.17-.08-.17-.17.08-.17.17-.17ZM567.27,300.01c-.09,0-.17-.08-.17-.17s.08-.17.17-.17.17.08.17.17-.08.17-.17.17ZM579.32,300.01c-.09,0-.17-.08-.17-.17s.08-.17.17-.17.17.08.17.17-.08.17-.17.17ZM578.93,299.84c0,.07.02.13.05.18h-.26c.1-.32.1-.61,0-.87-.2-.47-.67-.65-.69-.66-.02,0-.05,0-.07,0-.01,0-1.06.35-.81,1.53h-.34c.03-.06.05-.12.05-.18,0-.17-.11-.31-.26-.36,0-.01,0-.03,0-.04.03-.43.18-.65.25-.73l.16.05s.07,0,.1-.01c.03-.02.05-.05.05-.09.03-.78.63-1.15.83-1.25.18.16.74.7.72,1.18,0,.03,0,.06.03.08.02.02.05.03.08.03h.19c.07.09.23.36.21.77h0c-.17.05-.29.19-.29.37ZM577.37,300.03c-.21-.9.44-1.23.61-1.3.1.05.4.21.53.52.09.22.08.49-.02.78h-1.12ZM576.47,299.67c.09,0,.17.08.17.17s-.08.17-.17.17-.17-.08-.17-.17.08-.17.17-.17ZM576.38,299.47c-.17.04-.3.19-.3.37,0,.07.02.13.05.18h-.28c.1-.32.1-.61,0-.87-.2-.47-.67-.65-.69-.66-.02,0-.05,0-.07,0-.01,0-1.06.35-.81,1.53h-.43c.03-.06.05-.12.05-.18,0-.12-.05-.22-.13-.29,0-.51.18-.76.26-.85l.16.05s.07,0,.1-.01c.03-.02.05-.05.05-.09.03-.78.63-1.15.83-1.25.18.16.74.7.72,1.18,0,.03,0,.06.03.08.02.02.05.03.08.03h.19c.06.09.21.34.21.71,0,.02,0,.03,0,.05ZM574.5,300.03c-.21-.9.44-1.23.61-1.3.1.05.4.21.53.52.09.22.08.49-.02.78h-1.12ZM570.24,299.67c.09,0,.17.08.17.17s-.08.17-.17.17-.17-.08-.17-.17.08-.17.17-.17ZM573.68,299.84c0,.09-.08.17-.17.17s-.17-.08-.17-.17.08-.17.17-.17.17.08.17.17ZM573.51,299.45c-.22,0-.39.18-.39.39,0,.07.02.13.05.18h-.13c-.03-.41-.14-.75-.34-1.01-.34-.44-.79-.51-.81-.51-.02,0-.5.07-.84.51-.2.26-.32.61-.34,1.01h-.13c.03-.06.05-.12.05-.18,0-.22-.18-.39-.39-.39,0,0,0,0,0,0,.08-.32.21-.65.31-.74l.19.04s.06,0,.09-.02c.03-.02.04-.05.05-.08,0-.01.1-1.04,1.03-1.32.92.28.99,1.28.99,1.32,0,.03.02.06.05.08.02.02.06.02.09.02l.19-.04c.1.09.23.42.31.74,0,0,0,0,0,0ZM573.14,300.25l-.09.11s0-.07,0-.11h.09ZM572.75,299.63c-.04-.06-.08-.11-.13-.16-.33-.31-.71-.28-.73-.27-.02,0-.43-.03-.76.27-.05.05-.09.1-.13.16.05-.18.12-.35.22-.48.28-.37.66-.43.67-.43,0,0,.36.06.64.43.1.13.17.3.22.48ZM570.7,300.25s0,.07,0,.11l-.09-.11h.09ZM570.75,300.77s.05.04.08.04c.01,0,.03,0,.04,0,.04-.02.06-.06.06-.1h0c-.01-.49.1-.85.33-1.06.26-.24.61-.22.61-.22,0,0,.33-.02.58.22.23.21.34.57.33,1.06h0s.02.09.06.1c.01,0,.03,0,.04,0,.03,0,.06-.01.08-.04l.3-.37.27.71-.71.5c-.24-.27-.59-.44-.97-.45h0s-.01,0-.02,0-.01,0-.02,0h0c-.39.01-.73.18-.97.45l-.71-.5.27-.71.3.37ZM581.88,301.61h-7.1c-.18-.35-.67-.49-.92-.54h8.55l-.54.54ZM573.7,300.85l-.23-.6h8.44c-.08.19-.19.39-.34.6h-7.86ZM580.86,298.73c.1.05.39.21.53.52.09.22.08.49-.02.78h-1.12c-.21-.9.44-1.23.61-1.3ZM580.83,297.42c.17.16.74.7.72,1.18,0,.03,0,.06.03.08.02.02.05.03.08.03h.19c.09.14.35.62.14,1.32h-.39c.1-.32.1-.61,0-.87-.2-.47-.67-.65-.69-.66-.02,0-.05,0-.07,0-.01,0-1.06.35-.81,1.53h-.36c.03-.06.05-.12.05-.18,0-.17-.11-.31-.26-.37.02-.45.18-.69.25-.77l.16.05s.07,0,.1-.01c.03-.02.05-.05.05-.09.03-.78.63-1.15.83-1.25ZM575.47,293.87h-3.39l.74-.92.47-.36v.05h1.64l.87.9-.33.33ZM569.52,291.88s-.01-.05-.03-.07l-.51-.52h1.09l-.53.53s-.02.04-.02.06ZM569.49,291.96s.02-.04.02-.06c0,.03.02.06.04.08l.57.44h-1.08l.44-.46ZM569.79,291.88l.59-.59h.07v-.07l.15-.15.47.34c-.07.13-.11.27-.11.42s.04.28.1.41l-.36.32-.9-.69ZM571.88,286.56c.76.21,1,1.16,1,1.17,0,.03.03.06.05.07l.32.18.09.61s-.04,0-.06,0c-.02,0-.17.06-.26.23-.05.1-.06.21-.04.34h-.09c.07-.38.02-.71-.15-.98-.29-.45-.79-.56-.84-.57,0,0-.04,0-.05,0-.02,0-.53.12-.81.57-.17.27-.22.6-.15.98h-.13c.02-.13,0-.24-.04-.34-.09-.17-.24-.22-.28-.23-.02,0-.03,0-.05,0l.08-.57.37-.21s.05-.04.05-.07c0,0,.24-.97,1-1.17ZM576.24,288.65c.03.17.06.34.09.51h-.44c.03-.39.25-.49.35-.51ZM575.67,289.16h-.15c.01-.29-.02-1.21-.92-1.48-.02,0-.03,0-.05,0-.01,0-.37.06-.61.4-.13.18-.19.4-.2.66-.05-.04-.11-.08-.18-.11l-.08-.59.43-.17s.07-.06.07-.11c-.04-.61.54-1.06.72-1.19.19.13.77.58.8,1.2,0,.06.05.1.11.11.01,0,.33.03.4.64-.16.09-.32.27-.34.65ZM573.2,289.16c-.02-.09-.02-.17,0-.23.04-.08.12-.12.11-.12.27-.04.39.2.44.34,0,0,0,0,0,.01h-.57ZM574,289.16s-.01-.05-.02-.07c-.05-.37-.01-.68.14-.89.15-.22.37-.29.44-.3.74.25.75,1.04.74,1.26h-1.29ZM571.1,289.16c-.07-.34-.03-.63.12-.86.23-.37.66-.47.65-.47.02,0,.44.11.68.47.15.23.18.52.12.86h-1.56ZM568.39,289.16c-.01-.23,0-1.02.74-1.26.07.02.29.09.44.3.16.23.2.55.13.96h-1.3ZM570.37,288.8s.09.03.13.12c.03.06.03.14,0,.23h-.57c.05-.13.18-.39.43-.35ZM570.15,288.62c-.08.03-.15.08-.21.13,0-.27-.07-.5-.2-.68-.24-.34-.59-.39-.61-.4-.02,0-.03,0-.05,0-.9.28-.93,1.2-.92,1.48h-.1c-.02-.35-.16-.54-.31-.63.06-.62.38-.65.4-.65.06,0,.11-.05.11-.11.03-.62.62-1.07.8-1.2.19.13.76.58.72,1.19,0,.05.03.09.07.11l.38.15-.09.6ZM567.85,289.16h-.43c.03-.17.06-.34.09-.5.11.02.32.12.34.5ZM576.37,289.38c.03.17.06.34.08.52h-4.17l-.32-.34s-.05-.03-.08-.03c-.04,0-.06.01-.08.03l-.34.34h-4.15c.02-.18.05-.35.08-.52h8.98ZM571.87,289.79l.1.11h-.21l.11-.11ZM572.18,290.12l.71.75-.4.3c-.16-.15-.38-.25-.62-.25-.28,0-.52.12-.69.32l-.43-.32.8-.8h.64ZM574.28,291.96l.44.46h-1.21l.57-.44s.04-.05.04-.08c0-.03,0-.06-.03-.08l-.5-.53h1.2l-.51.52s-.04.11,0,.15ZM573.85,291.88l-.93.71-.28-.25c.09-.14.15-.32.15-.5s-.06-.36-.15-.51l.41-.3.8.85ZM571.17,291.84c0-.39.31-.7.7-.7.2,0,.39.09.52.23l.07.1h0c.07.11.11.24.11.38,0,.17-.07.33-.17.45l-.04.05c-.13.12-.3.2-.49.2-.39,0-.7-.31-.7-.7ZM571.17,292.43c.17.2.42.33.7.33.24,0,.46-.1.63-.25l.24.21-.08.06-.79.99-.92-1.01-.09-.07.3-.27ZM574.51,291.88l1.45-1.47.31.31-1.07,1.05s-.04.11,0,.16l1.07,1.12-.32.32-1.44-1.49ZM576.42,292.89l-.99-1.04,1-.97.98,1-.98,1.01ZM576.04,290.18s-.05-.03-.08-.03h0s-.06.01-.08.03l-.88.89h0s-1.62,0-1.62,0l-.9-.95h3.98c.02.18.04.37.06.56l-.49-.5ZM572.94,281.45c.03-.1.04-.22.02-.35.02,0,.04.01.06.01.02,0,.04,0,.06,0,.32,0,.55-.22.57-.24v.57h-.72ZM572.74,281.14c.03.16-.03.33-.08.43l-.26-.25s-.1-.04-.15,0c-.04.04-.05.1-.02.15.09.14.12.26.09.39-.07.23-.34.38-.44.43-.13-.05-.5-.27-.36-.83.01-.05,0-.1-.05-.13-.04-.02-.1-.01-.13.02l-.22.24c-.06-.09-.12-.22-.11-.37,0-.09.04-.18.11-.26.07-.05.13-.11.19-.19.03-.02.05-.04.08-.06.14.1.31.16.5.16s.36-.06.51-.16c.09.13.19.22.3.29.03.05.05.09.06.15ZM570.82,281.45h-.73v-.57s.25.24.57.24c.02,0,.04,0,.06,0,.03,0,.06-.01.09-.02,0,.03-.02.06-.02.1,0,.09,0,.18.02.25ZM571.39,274.79l.08.07s.05.03.08.03c.03,0,.06-.01.08-.03.04-.04.04-.11,0-.16l-.17-.16c.09-.29.23-.57.45-.76.11.08.34.29.49.7-.01,0-.03,0-.04.02l-.21.2s-.05.11,0,.16c.02.02.05.03.08.03.03,0,.06-.01.08-.03l.17-.16c.03.14.06.29.07.46l-.03.59h-.12c-.03-.22-.13-.7-.39-.89-.02-.02-.05-.02-.07-.02,0,0,0,0,0,0,0,0,0,0,0,0-.02,0-.05,0-.07.02-.26.19-.36.67-.39.89h-.13c0-.14,0-.54.08-.97ZM572.74,275.15v-.2s.04-.07.05-.11l.16.12s.04.02.07.02c.03,0,.07-.01.09-.04.04-.05.03-.12-.02-.16l-.19-.15c.14-.18.33-.28.46-.32.02.16.04.37.07.62l-.06.03s-.48.27-.55.79h-.11c.03-.22.04-.43.03-.61ZM573.66,280.41c-.11.02-.23.02-.38-.02-.05-.01-.1,0-.13.05-.02.05-.01.1.02.13l.24.22c-.09.06-.22.12-.37.1-.07,0-.13-.03-.2-.07-.07-.09-.15-.17-.27-.25,0-.01-.02-.02-.02-.03.13-.16.22-.36.22-.58,0-.2-.07-.38-.17-.52.1-.16.23-.26.37-.29.17-.03.33.03.43.08l-.25.26s-.04.1,0,.15c.04.04.1.05.15.02.13-.09.25-.12.37-.09l.22.13c.11.11.2.24.23.31-.03.06-.1.19-.23.28l-.22.09ZM571.22,279.98c0-.37.3-.67.67-.67s.67.3.67.67-.3.67-.67.67-.67-.3-.67-.67ZM570.94,278.69s.02-.02.03-.03c.11-.22.17-.23.17-.23.03,0,.09.1.12.21.01.05.07.09.12.08.06,0,.1-.05.1-.11,0-.67.27-1.32.42-1.61.14.23.39.77.39,1.61,0,.05.04.1.09.11.05,0,.11-.02.12-.08.03-.09.09-.2.14-.21,0,0,.07,0,.2.23,0,0,0,0,0,0l-.08.34c-.12.06-.22.16-.32.29-.15-.12-.35-.2-.56-.2s-.41.08-.57.21c-.09-.13-.19-.22-.3-.28h0s-.08-.33-.08-.33ZM573.66,278.97v.22s0-.03-.02-.04c-.01,0-.3-.22-.64-.2l.05-.22h.61c0,.08,0,.17,0,.24ZM573.6,279.36l.05-.05s0-.02.01-.03v.09s-.04,0-.06-.01ZM573,278.5c-.07-.12-.2-.31-.39-.28-.05,0-.09.02-.12.05-.08-1.02-.51-1.52-.53-1.54-.02-.02-.04-.02-.07-.03h1.69c.04.61.08,1.25.08,1.81h-.66ZM573.5,275.76h-.46c.06-.33.33-.52.41-.58.02.18.04.37.05.58ZM571.9,275.1c.14.15.21.46.24.66h-.49c.03-.2.11-.51.24-.66ZM570.64,274.95s.05.04.09.04c.02,0,.05,0,.07-.02l.2-.15s.04.07.05.12l.04.83h-.28c-.06-.41-.36-.66-.49-.75.03-.28.06-.52.07-.7.11.03.33.11.49.3l-.22.17s-.06.11-.02.16ZM570.59,275.76h-.34c.02-.17.03-.33.05-.49.11.1.25.26.29.49ZM571.5,275.98s.01,0,.02,0c0,0,0,0,.01,0,0,0,.02,0,.02,0h.7s.01,0,.02,0c0,0,0,0,.01,0,0,0,.01,0,.02,0h1.22c.01.16.03.33.04.5h-3.38c.01-.17.03-.33.04-.5h1.27ZM571.85,276.7s-.06.02-.07.04c-.02.03-.42.71-.51,1.51-.03-.02-.07-.04-.11-.04-.16-.02-.28.14-.36.29h-.71c0-.56.04-1.19.08-1.81h1.68ZM570.72,278.73l.06.22c-.35-.04-.65.19-.66.2-.01,0-.01.03-.02.04v-.21c0-.08,0-.16,0-.24h.63ZM570.09,279.28s0,.02,0,.02l.05.05s-.04,0-.06,0v-.09ZM573.66,280.72l-.08-.07s.05,0,.08-.01v.09ZM571.87,265.1l1.44,8.89s0,.05.01.12c-.15.04-.43.16-.62.43-.02,0-.04.02-.06.04-.21-.74-.68-1-.71-1.02l-.06-.03-.05.04c-.36.26-.54.7-.64,1.12-.2-.42-.61-.55-.76-.59,0-.06.01-.1.01-.1l1.44-8.89ZM569.87,280.32c-.13-.09-.2-.22-.23-.28.03-.07.12-.21.23-.31l.22-.13c.12-.03.24,0,.37.09.05.03.11.02.15-.02.04-.04.03-.11,0-.15l-.25-.26c.1-.05.26-.11.43-.08.15.03.28.13.38.3-.1.14-.16.32-.16.51,0,.22.08.41.21.56-.02.03-.04.05-.05.07-.07.06-.13.12-.18.18-.08.06-.17.1-.26.1-.15.02-.29-.05-.37-.1l.24-.22s.05-.09.02-.13c-.02-.04-.08-.07-.13-.05-.15.04-.28.04-.38.02M570.17,280.64l-.08.07v-.08s.05.01.08.01ZM570.01,281.67h.89c.06.1.13.16.13.17.02.02.05.03.08.03.03,0,.06-.01.08-.04l.07-.08c.03.58.58.75.58.76.01,0,.02,0,.03,0,.01,0,.03,0,.04,0,.02,0,.49-.21.6-.59.01-.05.02-.09.02-.14l.05.05s.05.03.08.03c.03,0,.06-.02.08-.04,0,0,.05-.07.1-.17v.03h.86c.28.48,1.63,2.87,2.39,6.39-.12-.27-.3-.37-.41-.4-.09-.81-.92-1.31-.96-1.33-.03-.02-.08-.02-.11,0-.04.02-.88.54-.89,1.35l-.34.14-.33-.19c-.06-.22-.36-1.12-1.2-1.31h0s0,0,0,0c0,0,0,0,0,0h0c-.84.19-1.14,1.09-1.2,1.31l-.33.19-.34-.14c0-.81-.85-1.33-.89-1.35-.03-.02-.08-.02-.11,0-.04.02-.87.53-.96,1.33-.12.03-.33.14-.44.47.75-3.56,2.12-5.99,2.41-6.47ZM567.28,290.12h3.95l-.94.95h-1.53l-.88-.89s-.05-.03-.08-.03h0s-.06.01-.08.03l-.51.52c.02-.19.04-.39.06-.58ZM567.34,290.89l1,.97-.99,1.04-.98-1.01.98-1ZM567.49,293.05l1.07-1.12s.04-.11,0-.16l-1.07-1.05.31-.31,1.45,1.47-.51.53h-.01s-.92.96-.92.96l-.32-.32ZM567.96,293.53l.87-.9h1.58l.39.29.85.94h-3.36l-.33-.33ZM567.07,294.09h9.63l3.56,3.47c-.21.21-.42.51-.47.95l-.09-.03s-.07,0-.1.02c0,0-.16.12-.27.4-.09-.23-.2-.36-.21-.37-.02-.02-.05-.04-.08-.04h-.14c-.06-.63-.81-1.26-.84-1.28-.03-.03-.07-.03-.11-.02-.04.02-.9.37-1.01,1.32l-.09-.03s-.07,0-.1.02c0,0-.15.12-.25.37-.08-.21-.19-.33-.2-.34-.02-.02-.05-.04-.08-.04h-.14c-.06-.63-.81-1.26-.84-1.28-.03-.03-.07-.03-.11-.02-.04.02-.9.37-1.01,1.32l-.09-.03s-.07,0-.1.02c-.01,0-.21.16-.32.54-.08-.23-.2-.46-.34-.53-.02-.01-.05-.01-.07,0l-.12.03c-.07-.31-.32-1.12-1.19-1.38-.87.27-1.16,1.08-1.22,1.38l-.12-.03s-.05,0-.07,0c-.14.07-.26.3-.34.53-.11-.38-.3-.53-.32-.54-.03-.02-.07-.03-.1-.02l-.09.03c-.11-.95-.97-1.31-1.01-1.32-.04-.01-.08,0-.11.02-.03.03-.78.65-.84,1.28h-.14s-.06.01-.08.04c0,0-.11.13-.2.34-.11-.25-.25-.36-.25-.37-.03-.02-.07-.03-.1-.02l-.09.03c-.11-.95-.97-1.31-1.01-1.32-.04-.01-.08,0-.11.02-.03.03-.78.65-.84,1.28h-.14s-.06.01-.08.04c0,0-.12.14-.21.37-.11-.27-.26-.39-.27-.4-.03-.02-.07-.03-.1-.02l-.09.03c-.05-.42-.25-.72-.45-.93l3.58-3.49ZM561.9,298.71h.19s.06-.01.08-.03c.02-.02.03-.05.03-.08-.02-.48.54-1.02.72-1.17.19.1.8.47.83,1.24,0,.03.02.07.05.09.03.02.06.02.1.01l.16-.05c.08.08.23.32.25.77-.15.05-.26.2-.26.37,0,.07.02.13.05.18h-.36c.25-1.17-.8-1.52-.81-1.53-.02,0-.05,0-.07,0-.02,0-.49.19-.69.66-.11.26-.11.55,0,.87h-.39c-.21-.7.05-1.18.14-1.32ZM562.38,300.03c-.1-.29-.12-.55-.02-.78.13-.31.43-.48.53-.52.17.07.82.4.61,1.3h-1.12ZM561.83,300.25h8.44l-.23.6h-7.86c-.15-.21-.27-.41-.34-.6ZM569.88,301.07c-.25.05-.74.19-.92.54h-7.19l-.54-.54h8.64ZM560.24,301.57l1.14,1.17-1.17,1.2-1.17-1.19,1.21-1.17ZM560.36,304.09l1.25-1.28s.04-.11,0-.15l-1.21-1.25.44-.43,1.75,1.76-1.75,1.84-.48-.49ZM561.21,309.14c-.49.42-.87.84-1.13,1.25-1-3,.85-5.39,1.11-5.71h2.06c-.07.05-.14.11-.21.18-.49.51-.75,1.38-.75,2.58-.1-.1-.23-.19-.38-.16-.21.04-.51.28-.69,1.86ZM556.58,305.42l.43.21s.1.01.13-.03c.03-.04.03-.09,0-.14-.56-.77-.32-1.63-.09-2.14.04.28.18.62.61.85.06.02,1.46.51,1.11,2.15-.01.06.02.12.08.13.06.01.12-.02.13-.08,0,0,.1-.33.31-.46-.01.14,0,.32.14.47,0,0,.33.36.28.74h.01c-.13.54-.21,1.14-.17,1.79-.23-.32-.62-.69-1.3-.9-.79-.24-1.14-.46-1.3-.59,0-.02,0-.03-.01-.05-.43-.66-.41-1.6-.38-1.96ZM556.63,309.16l.82.18c.06.01.11-.02.13-.07s0-.11-.06-.14c-1-.49-1.03-1.38-1-1.73l.19.09c.11.12.45.43,1.49.74,1.18.36,1.42,1.25,1.43,1.29h0c.06.36.14.72.28,1.1h.03s-.05.1-.08.16l-.55-.26s-.06-.01-.09,0c-.03.01-.05.04-.06.07l-.26.76s-.12-.03-.24-.06c-1.85-.54-2.03-1.73-2.04-2.12ZM559.79,311c-.07.2-.11.4-.13.6-.02.24.01.45.06.63-.22-.39-.49-.64-.62-.74l.24-.7.45.21ZM556.96,312.24l.59.15c.06.02.12-.02.13-.08.02-.06-.01-.12-.07-.14-.79-.28-.88-1.07-.87-1.46.5.38,1.49.68,1.93.8.07.02.14.04.21.05,0,.02.02.04.04.05,0,0,.75.53.87,1.49v.09c-.35-.14-.56-.1-.57-.1-.04,0-.07.03-.08.07,0,.02-.16.39-.12.71l-1.08-.31c-.73-.4-.92-1.03-.97-1.32ZM559.81,316.12c-.07-.14-.06-.4-.04-.55.14,0,.44,0,.65.31.06.25.13.5.21.74-.29-.31-.6-.44-.82-.5ZM559.31,313.31c.11,0,.39.04.78.28.03.48.09,1.06.2,1.66-.26-.8-.76-1.16-1.04-1.3h.01c-.08-.19,0-.49.05-.65ZM557.6,314.98h.44c.06-.01.11-.06.11-.11,0-.06-.04-.11-.1-.12-.62-.08-.81-.83-.86-1.17l.67.19c.3.16.69.28,1.17.33,0,0,0,0,0,0,.17.06.79.36,1.06,1.28-.24-.07-.44-.03-.45-.03-.04,0-.08.04-.08.09,0,.05-.06.37,0,.63-.01,0-.02,0-.03,0l-.62-.06s-.01-.01-.02-.01l-.29-.06c-.61-.19-.9-.71-1.01-.96ZM558.3,317.37l.53.05c.06,0,.11-.04.12-.09s-.03-.11-.09-.12c-.74-.14-.93-.87-.97-1.18l.66.15c.1.03.2.05.31.07,0,0,.01,0,.02,0v.02s.65.06.65.06h0s.96.02,1.43,1.29c-.4-.19-.71-.13-.73-.12-.05.01-.08.05-.08.1,0,.02-.05.54.14,1.02-.19-.02-.32-.03-.34-.03h-.52c-.6-.1-.99-.85-1.14-1.18ZM555.46,316.55s.02.07.06.09.07.02.11,0l.14-.07c-.01.12,0,.28.07.47,0,0,0,.02.02.03,0,0,.68.93.36,1.71-.07-.52-.6-.97-.6-.97-.43-.26-.43-.81-.43-.81,0,0,.15-.15-.07-.27-.22-.12-.32.07-.32.07,0-.2-.18-.29-.18-.29-.5.05-.26-.73-.26-.73-.73,1.1.24,1.03.24,1.03.24.21-.1.49-.1.49.01-.12-.13-.36-.13-.36-.09-.04-.28.21-.28.21-.37-.26-.24-.87-.24-.87.42-.66-.28-1.06-.58-1.25-.29-.19-.52-.72-.52-.72-.2.2-.2.59-.2.59-.47-.18-.05-.68-.05-.68.11-.16.09-.34.09-.34l-.4-.5c-.02-.05-.01-.14.01-.25.08-.08.2-.2.3-.36,0,0,0,0,0,0,.11-.17.2-.38.21-.62.04.02.08.05.12.09.11.12.24.38.23.92,0,.01-.01.28.16.5.02.03.05.04.08.04.03,0,.06,0,.09-.03l.08-.08c0,.13.03.28.12.41.04.06.1.13.18.22.3.34.79.9.84,1.71,0,.04.02.07.06.09.03.02.07.02.11,0,.19-.1.49-.36.54-.73.1.19.19.48.15.91v.36ZM555.62,320.91l.05.06c-.17.09-.56.22-1.05-.05-.03-.02-.07-.02-.1,0-.03.02-.05.04-.06.08l-.02.12c-.13,0-.77-.03-1.21.38-.05-.12-.07-.23-.09-.34.32-.1,1.27-.44,1.42-.94,0-.03.02-.07.02-.12.64-.08,1.16-.87,1.16-.87.02-.15.23-.2.36-.21,0,0,0,.02,0,.03,0,.03.03.06.06.07.03.01.62.28.48.91-.01.02-.27.61-.95.71-.04,0-.07.03-.09.07s0,.08.02.11ZM552.52,326.37s-.22.14-.04.27l.19.12s-.19.27-.58.11c0,0-.11-.66-.49-.85,0,0-.17-.7.69-.56,0,0-.21.2-.08.32,0,0,.06.1.18.03,0,0,.48-.25.69.17,0,0-.09.39-.57.39ZM550.8,326.24c-.01-.08-.02-.16-.03-.25.09.01.17.02.25.02.14.04.3.12.43.25.22.22.32.57.31,1.01-.1-.02-.28-.08-.45-.19.08-.47-.28-.74-.51-.83ZM551.06,323.91s-.24-1.75.59-2.88c.03-.04.7-.97.84-1.7,0-.02,0-.03,0-.04.31-.21.38.27.38.27,0,.47.29.49.29.49.15.02.13-.22.13-.22.03-.07.14-.02.22.03-.03.1-.08.21-.15.33-.02,0-.04,0-.05,0-.38.1-.7.11-.7.1h-.11s.31.18.7.14c-.07.11-.15.21-.22.3-.04.01-.08.04-.08.09,0,0,0,.01,0,.02-.06.07-.11.14-.15.19-1.4,1.51-1.26,3.25-1.17,3.79-.08-.04-.14-.07-.19-.11-.08-.11-.16-.21-.24-.31-.02-.14-.04-.31-.08-.5ZM552.08,319.09h0l-.5.11h0s.18-.14.5-.11ZM551.74,318.22l.39.07-.37.33-.02-.4ZM551.82,319.5l.1-.17-.1.17-.16-.2.16.2ZM551.64,314.96l-.03.41s-.52.16-.52.55c0,0-.34-.85.55-.96ZM551.18,314.15c.38-.04.38.17.38.17.03.17-.27.39-.27.39l-.11-.57ZM551.7,316.93l.29.33-.55-.1.26-.23ZM551.96,314.69l.6.63s-.17.56-.61.67l-.27-.48s.21.14.24-.06c0,0-.13-.39.04-.77ZM552.01,316.37s.16,0,.19-.29c0,0,.08-.17.28-.19l.34-.23s-.11.19.07.42c.18.23.32.53.28.66-.04.13,0,.36-.25.4,0,0-.01,0-.02,0,.11-.09.17-.23.17-.38,0-.28-.23-.52-.52-.52s-.52.23-.52.52c0,.1.03.18.08.26-.02,0-.03-.01-.05-.02,0,0-.42-.18-.07-.63ZM554.01,318.8s.1-.28.46-.32c.36-.04.27-.18.27-.18,0,0,.06.06.04.23-.02.17.11.28.11.28.28.5-.06.73-.06.73-.08.08-.18.11-.28.1.19-.05.34-.21.35-.42h0c0-.26-.19-.47-.45-.48-.13,0-.24.04-.33.12-.09.08-.14.2-.15.32,0,.06,0,.11.03.16h0c-.37-.38.02-.54.02-.54ZM553.89,318.07l.1-.02c.11,0,.12-.04.12-.16s.09-.55.09-.55l.4.62c0,.2-.58.45-.58.45l-.14-.34ZM554.35,320.16c-.03.09-.09.17-.19.25-.13-.17-.36-.22-.54-.23.04-.08.08-.16.1-.24l.63.16s0,.04,0,.06ZM553.12,320.93c.11-.15.25-.33.37-.53.15,0,.38,0,.49.14-.27.17-.62.32-.87.4,0,0,0,0,0,0ZM554.19,319.19c0-.06.03-.12.08-.17.05-.04.1-.06.16-.06,0,0,0,0,0,0,.13,0,.24.12.23.25,0,.13-.13.24-.25.23-.06,0-.12-.03-.17-.08-.04-.05-.07-.11-.06-.17ZM553.86,319.53l-.45-.16c.45-.33.45.16.45.16ZM553.46,317.63h-.22s-.17.05-.17.05h-.15s.57-.62.57-.62c.63,0-.04.57-.04.57ZM553.3,319.28s-.68.17-.3-1.06c0,0,.39.51.3,1.06ZM552.26,316.76c0-.16.13-.29.3-.29s.29.13.29.29-.13.29-.29.29-.3-.13-.3-.29ZM550.97,324.99c0,.06.04.11.1.12,0,0,0,0,.01,0,.06,0,.1-.04.11-.1,0,0,0-.06,0-.19.11.15.2.32.27.5-.01.07-.06.28-.23.39-.05.03-.12.06-.18.07-.16-.04-.29-.05-.37-.05-.08-.18-.18-.52-.04-.94l.05-.48s0-.03-.01-.05c.08.07.17.16.26.26.04.34.03.48.03.48ZM551.81,324.92c-.06-.27-.39-2.13,1.1-3.74,0,0,0,0,0,0,.02.16.06.35.16.53,0,.03.01.06.04.08,0,0,0,0,0,0,.05.08.1.15.17.21-.63.64-1.22,1.63-.98,3.01-.2-.01-.36-.05-.5-.09ZM553.45,321.85s-.09-.09-.12-.14c.21-.23.51-.32.75-.35-.18.12-.4.28-.62.49ZM555.1,319.51s0-.49.5-.48l-.5.48ZM550.35,307.65c0,.08,0,.16.03.25.11.42.52.65.54.66.84.4.91,1.27.91,1.64-.02.07-.02.14-.01.21,0,.05.05.09.11.09h0c.05,0,.1-.04.11-.09,0,0,0-.07.01-.17.02-.06.06-.12.09-.17.08.34.37.69.41.74.34.37.49,1.27.49,1.28,0,.04.04.08.08.09.04.01.09,0,.11-.04l.16-.19c.13.32.5.66.6.74,1.04.75.8,1.7.79,1.76-.02.32.15.47.29.53.09.34-.11.58-.26.71-.11-.78-.58-1.32-.87-1.65-.07-.08-.13-.15-.17-.2-.16-.23-.03-.55-.03-.56.02-.05,0-.1-.04-.13-.04-.03-.1-.02-.14.01l-.23.22c-.05-.13-.05-.24-.05-.25.02-.51-.08-.88-.3-1.09-.18-.18-.37-.18-.39-.18-.03,0-.06.01-.08.04s-.03.05-.03.08c.01.15-.01.29-.06.41-.28-.74-.83-1.35-.86-1.38-.33-.37-.29-.82-.29-.82,0-.04-.01-.07-.04-.09-.03-.02-.06-.03-.1-.02-.2.05-.31.16-.38.27-.07-.21-.07-.4-.07-.41-.07-.64-.39-1-.62-1.18,0-.02,0-.04,0-.06-.09-.45.09-.82.28-1.07ZM549.86,308.89c.18.12.54.44.61,1.07,0,.02-.01.41.22.74.03.04.07.06.12.04.04-.01.08-.05.08-.09,0,0,.02-.18.17-.29.02.2.09.52.35.81,0,0,.53.59.8,1.27l-.43.24c-.14-.17-.73-.55-.73-.55-.62-.26-.81-1.11-.81-1.11-.16.08-.21.21-.21.21h-.02c-.1-.23-.25-.47-.42-.65-.22-.23-.21-.47-.2-.55.49-.38.52-.86.48-1.16ZM549.74,314.61c0-.22.18-.4.4-.4s.4.18.4.4c0,.19-.13.34-.31.38-.08-.01-.15-.02-.23-.01-.15-.06-.25-.2-.25-.37ZM550.14,314c-.34,0-.62.28-.62.62,0,.18.07.33.19.45-.01,0-.03,0-.04.02,0,0-.61-.31-.31-1.08,0,0,0,0,0,0,0,0,.02,0,.02,0,.05,0,.1-.03.11-.09.03-.15.4-.37.65-.47.04-.02.07-.06.07-.11,0-.08,0-.22.02-.34.08.08.22.28.18.54-.06.35.23.27.23.27,0,0,.32.3.19.69,0,0-.09.22.08.12,0,0,.11.35-.25.51,0,0-.05-.02-.13-.05.13-.11.21-.28.21-.46,0-.34-.28-.62-.62-.62ZM548.87,313.01h.26s.07-.03.09-.07.02-.08,0-.11c-.16-.27-.12-.58-.05-.81.08.12.24.37.44.47,0,0,.34.14.43.29,0,0,0,0,0,0,0,.01-.05.29-.05.49-.16.08-.49.25-.64.46l-.49-.71h0ZM548.59,311.19c-.16-.63.15-1.13.4-1.41,0,.04.01.07.03.11.03.08.09.13.14.17-.01.14,0,.43.26.7.16.16.29.38.38.6l-.04.28c0-.28-.27-.33-.27-.33-.1.15-.21.21-.31.23-.43.07-.59-.34-.59-.35ZM547.85,313.65c.13.29.38.46.4.47,0,0,.01,0,.02,0,.4.43.37.8.37.8.02.33.18.24.18.24.09.01.32-.24.32-.24.33.53.77.36.77.36.53-.1.75.21.75.21-.63.27-2.15-.21-2.48-.32-.45-.41-.42-1.07-.33-1.52ZM550.45,316.62c-.02.6-.66.56-.66.56l.66-.56ZM549.57,318.12s-.43-.05-.41-.44l.84-.15s-.5.26-.43.59ZM550.09,317.48l.54-.5.16.28-.7.23ZM550.99,317.08s-.54-.04-.18-1.15c0,0,.57.54.56,1.17l-.38-.02ZM552.55,317.91s-.24-.12-.54-.03l-.27.1-.34-.47s1.12.02,1.15.39ZM550.72,321.1s.47-.86.72-1.59c.08.18.35.26.35.26-.04.21.05.33.14.4-.22.4-.45.72-.45.73-.89,1.21-.64,2.97-.63,3.05.01.07.02.14.03.2-.19-.17-.34-.28-.35-.29,0,0,0,0,0,0-.15-.49-.28-1.43.2-2.76ZM550.88,326.54c.1.07.2.19.22.35-.08-.09-.16-.21-.22-.35ZM552.69,327.96c-.36-.12-.65-.39-.72-.56,0,0,0-.01.01-.02,0-.07,0-.13,0-.2h.37c.23-.05.36.08.44.23,0,.03,0,.07.02.09,0,0,.02.03.05.06,0,0,0,.01,0,.02-.1-.07-.17-.09-.18-.1-.06-.02-.12.02-.14.07-.02.06.01.12.07.14.01,0,.25.08.36.4-.07-.05-.16-.1-.28-.14ZM553.02,326.58c.49-.4.06-.96.06-.96.53.02.63.39.63.39-.06.39-.7.58-.7.58ZM553.9,326.39c.27-.49-.26-.82-.26-.82.45-.16.65.11.65.11.07.34-.39.7-.39.7ZM554.46,326.06c.22-.4-.21-.67-.21-.67.36-.13.53.09.53.09.06.28-.32.57-.32.57ZM554.98,325.7c.12-.34-.25-.49-.25-.49.27-.15.42,0,.42,0,.08.21-.17.49-.17.49ZM555.41,325.38c.06-.29-.26-.37-.26-.37.2-.15.34-.05.34-.05.09.16-.08.41-.08.41ZM557.07,321.97c-.2.19-.51.45-.89.65-.01,0-1.17.49-.93,1.59-1.21.62-2.09.8-2.72.8,0,0,0-.01,0-.02-.44-2.48,1.94-3.63,2.04-3.68.03-.02.06-.04.06-.08v-.05c.74.32,1.25-.08,1.27-.1.02-.02.04-.05.04-.08,0-.03,0-.06-.03-.08l-.02-.02c.67-.19.93-.77.94-.82.13-.58-.22-.96-.49-1.12.46-.88-.23-1.89-.32-2.03-.13-.35-.01-.53,0-.53.03-.04.03-.1,0-.14-.03-.04-.09-.05-.14-.02l-.21.11v-.16c.07-.81-.27-1.21-.4-1.33.01-.13.09-.23.17-.3.08.58.69,1.15.71,1.17.46.6.45,1.51.44,1.81,0,.04,0,.08,0,.12,0,.06.05.11.11.11.06,0,.11-.04.11-.1,0,0,0-.04,0-.1.03-.14.14-.25.25-.33,0,.09,0,.21.04.37.02.09.07.21.13.37,0,.01.01.03.02.05,0,.02,0,.04,0,.06,0,0,.03.08.09.17.3.81.71,2.16.03,3.33-.07.12-.17.24-.3.37ZM558.38,324.08c.38.09.94.12,1.75-.05.06-.01.09-.07.09-.12s-.06-.1-.12-.09c-.08,0-2.04.14-2.33-2.59.04-.12.08-.24.1-.36.41.55,1.82.71,1.82.71-.02-.49-.76-1-1.27-1.36-.25-.17-.42-.49-.53-.78-.05-.27-.11-.53-.18-.76.21.16.5.31.9.37,0,0,0,0,0,0,.01,0,.03,0,.04,0h.03c.05,0,.1.02.15.02,0,0,0,0,0,0,.01,0,.03,0,.04-.02.44.03,1.38.18,1.94.79.35.38.5.9.43,1.53-.04.35-.14.92-.22,1.16-.27-.11-1.04-.4-1.63-.4h0s-.3.03-.48-.12c-.04-.04-.11-.03-.15,0-.04.04-.04.11,0,.15.04.04.87,1.01,2.01,1.33.1.17.5.84.87,1.07.03.11.12.23.3.25l.84.52c-.44.27-2.03.96-4.41-1.27ZM563.45,323.28s0,.03,0,.05c.04.09.11.37,0,.51-.1.13-.33.12-.49.09-.02,0-.19-.06-.33.03-.06.04-.13.11-.15.26,0,.02-.06.42-.38.42-.01,0-.02,0-.03.01l-.03-.02s-.01,0-.02,0c.07-.12.18-.35.17-.7,0-.02,0-.1.12-.14.03,0,.67-.13.73-.67,0,0,.16-.57.51-.66.13-.03.28,0,.44.12-.24.07-.5.26-.54.71ZM562.39,325.76c-.05.02-.11.03-.17.05.06-.01.12-.03.17-.05ZM562.98,324.65l-.54.1c.18-.13.26-.36.27-.5,0-.05.02-.08.05-.1.04-.03.12-.01.16,0,.33.05.56,0,.7-.16-.03.15-.09.3-.22.42,0,0-.37.07-.42.24ZM564.12,321.26s-.01.04,0,.06c.12.48.07.71.04.79-.08,0-.17-.07-.24-.14.17-.21.14-.49.08-.72l.03-.04s.04.02.1.05ZM563.64,321c.06.12.33.64.04.89-.04.04-.05.1-.01.15.03.03.24.29.47.29.04,0,.09,0,.13-.03.02,0,.03-.02.04-.04.02-.02.15-.24.05-.8.18.19.35.51.35,1.01,0,.9-.48.39-.56.3.05,0,.09,0,.1,0,.05,0,.09-.02.11-.06.02-.04,0-.09-.02-.12-.3-.29-.58-.41-.84-.34-.47.12-.66.79-.67.83-.05.39-.55.49-.57.5-.24.08-.29.28-.28.36,0,.27-.06.45-.12.55,0-.03-.02-.05-.05-.06-.31-.16-.72-.81-.85-1.05-.01-.03-.04-.05-.07-.05-.68-.18-1.27-.63-1.61-.95.09,0,.15,0,.15,0,.65,0,1.62.42,1.63.42.05.02.11,0,.14-.04.11-.18.21-.82.26-1.14l.13-.02s0,.08,0,.12c0,.01,0,.03.01.04.01.02.34.58.9.69.06.01.13.02.19.02.25,0,.5-.09.74-.28.03-.02.04-.05.04-.08s-.01-.06-.03-.09c-.03-.03-.64-.62-.43-1.3.06-.07.14-.15.23-.13,0,0,.24.18.4.44ZM562.77,320.6l.03.04c-.18.63.21,1.19.4,1.41-.22.14-.44.19-.65.15-.41-.08-.68-.47-.74-.56-.03-.24.02-.45.15-.62.23-.3.65-.4.8-.42ZM562.7,320.37v.02c-.21.04-.64.16-.91.5-.11.14-.17.29-.19.47l-.11.02c.06-.68-.1-1.24-.49-1.67-.74-.81-2.04-.86-2.29-.87,0,0-.02,0-.03,0-.18-.08-.25-.23-.27-.35.3.16.67.17.69.17h0c.1.04.21.07.32.09h0s0,0,0,0h.54s1.39.05,2.02.83c.02.03.05.04.09.04.01,0,.02,0,.03,0,.04-.01.07-.05.08-.1v-.2c.21.1,1.26.66.53,1.05ZM561.98,318.91l-.02.35c-.42-.38-.98-.56-1.41-.64-.18-.35-.19-.77-.19-.95.17-.01.6.03,1.03.56h0c.17.25.36.47.58.68ZM560.02,313.3l-.02-.22c-.02-.12-.04-.23-.07-.33.06.1.11.16.13.18,0,.12,0,.25.01.4-.02,0-.03-.02-.05-.02ZM560.13,312.19s-.06.05-.06.1c0,.02,0,.1,0,.22-.1-.2-.2-.51-.17-.9.05-.74.53-1.5,1.42-2.27h.03c.34.24,1.59,1.26,1.21,3.19-.78-1.07-2.4-.35-2.42-.34ZM564.32,310.63c-.06.13-.14.18-.15.19-.23.22-.22.59-.22.61,0,.06.05.11.11.11h.18c-.09.65-.51.66-.55.66-.62.12-.79.68-.79.95s-.04.37-.06.39c0,0,0,0-.01,0-.05,0-.14-.23-.18-.57h0c.09-.3.14-.58.16-.84l.41-.18c.16-.03.24-.15.26-.22,0-.02,0-.03,0-.05-.09-.51.27-.78.36-.84.18-.01.34-.11.47-.21ZM566.28,305.99c.01.19,0,.55-.35.7-.31.05-.92.29-.95.89,0,.04.02.07.05.1,0,0,.12.09.13.22,0,.09-.04.19-.13.28-.01.01-.27.26-.28.64,0,.04.01.07.04.09.03.02.07.03.1.02l.1-.03c.02.07.03.17,0,.28-.05.15-.18.28-.39.38l-.4.21c-.19.08-.52.38-.48.91-.04.03-.08.06-.12.09-.06-.34-.16-1.18.44-1.4.01,0,.26-.07.28-.41,0-.02-.02-.6.51-.77.05-.02.09-.07.08-.13-.06-.29-.16-1.1.09-1.42l.26-.15c.13-.02.33-.14.34-.45,0-.03,0-.69.63-.77,0,0,0,0,0,0,0,0,0,0,0,0-.01.01-.25.31-.2.66,0,.03.02.06.05.07.03.02.06.02.09.01l.13-.03ZM566.17,305.05c-.65.09-.81.69-.81.99,0,.21-.14.23-.17.24-.02,0-.03,0-.05.01l-.29.17s-.02.02-.03.03c-.32.39-.21,1.24-.16,1.53-.48.2-.59.71-.57.95,0,.15-.11.19-.12.2-.95.35-.57,1.75-.56,1.81h.01c-.12.18-.2.42-.16.71-.01.02-.04.05-.1.06l-.33.15c.03-1.67-1.12-2.55-1.4-2.74.17-1.47.43-1.63.51-1.65.12-.02.28.2.36.35.02.05.08.07.13.06.05-.01.09-.06.08-.11-.06-1.64.34-2.41.68-2.77.2-.21.4-.3.53-.34h2.7c0,.28-.24.36-.26.37ZM563.91,304.46v-.04s-.09,0-.21.04h-2.44l.59-.62h7.06c.11.09.49.34,1.03.31,0,.08,0,.19.02.31h-6.06ZM573.27,304.87l-.22-.3s-.08-.05-.12-.04c-.05.01-.08.06-.08.1,0,.05.04,1.31-.96,1.44-.99-.13-.99-1.39-.99-1.44,0-.05-.03-.09-.08-.1-.04-.02-.09,0-.12.04l-.22.3c-.39-.36-.32-.71-.3-.8l.66-.67c.24.3.61.49,1.02.5h0s.01,0,.02,0c0,0,.01,0,.02,0h0c.41-.01.77-.21,1.02-.5l.66.67c.02.09.09.44-.3.8ZM573.8,304.14c.53.03.92-.22,1.03-.31h6.97l.59.62h-2.33c-.12-.03-.2-.04-.21-.04v.04h-6.08c.03-.12.03-.23.02-.31ZM577.33,304.68h2.7c.14.04.33.13.53.34.34.36.74,1.13.69,2.78,0,.05.03.1.08.11.05.01.1-.01.13-.06.08-.16.24-.38.36-.35.08.01.34.18.51,1.65-.28.19-1.43,1.08-1.4,2.74l-.36-.16s-.07-.03-.08-.05c.05-.3-.04-.54-.16-.72h.01c.02-.06.4-1.46-.57-1.81-.01,0-.11-.04-.12-.18.01-.25-.09-.75-.57-.96.05-.29.16-1.14-.16-1.53,0,0-.02-.02-.03-.03l-.29-.17s-.03-.01-.04-.01c-.03,0-.16-.03-.17-.23,0-.3-.16-.9-.79-.99-.03,0-.27-.09-.27-.37ZM579.57,309.76l-.41-.21c-.21-.1-.34-.23-.39-.38-.04-.11-.02-.21,0-.28l.1.03s.07,0,.1-.02c.03-.02.04-.06.04-.09-.01-.38-.27-.63-.28-.64-.1-.1-.14-.2-.13-.28.01-.13.13-.22.13-.22.03-.02.05-.06.05-.1-.03-.59-.64-.84-.92-.88-.37-.15-.39-.52-.38-.7l.13.03s.06,0,.09-.01c.03-.02.04-.04.05-.07.06-.35-.18-.65-.2-.66,0,0,0,0,0-.01,0,0,.01,0,.02,0,.61.08.61.74.61.78.01.31.22.42.34.44l.26.15c.25.33.15,1.13.09,1.42-.01.06.02.11.08.13.53.17.51.75.51.78.02.32.27.39.27.39.61.22.52,1.06.45,1.4-.04-.04-.08-.07-.12-.09.04-.53-.29-.83-.48-.91ZM580.91,313.54s0,0-.01,0c-.02-.03-.06-.12-.06-.39s-.16-.83-.81-.96c-.02,0-.44,0-.53-.66h.18c.06,0,.11-.05.11-.11,0-.02.01-.4-.23-.62,0,0-.08-.06-.14-.18.13.1.29.2.47.21.09.06.46.33.36.84,0,.02,0,.03,0,.05.02.07.1.2.23.22l.43.19c.02.26.07.54.16.84h0c-.05.34-.13.57-.19.57ZM581.21,312.53c-.39-1.95.86-2.95,1.2-3.18h.03c.89.76,1.37,1.52,1.42,2.26.03.39-.07.7-.17.9,0-.12,0-.2,0-.22,0-.04-.03-.08-.06-.1-.02,0-1.64-.74-2.42.34ZM583.7,312.92s.07-.08.13-.18c-.03.11-.06.22-.07.34l-.02.22s-.03.01-.05.02c0-.14.01-.28.01-.4ZM582.36,318.22h0c.43-.53.86-.57,1.03-.56,0,.18,0,.6-.19.95-.43.08-.99.26-1.41.64l-.02-.35c.22-.2.41-.43.58-.68ZM581.58,319.33v.2s.04.08.09.1c.01,0,.02,0,.03,0,.03,0,.06-.01.09-.04.63-.78,2.01-.82,2.02-.82h.54s0-.02,0-.02h0c.11,0,.22-.04.32-.09h0s.39,0,.69-.16c-.02.12-.09.26-.27.35,0,0-.02,0-.03,0-.25,0-1.55.06-2.29.87-.39.42-.55.99-.49,1.67l-.11-.02c-.02-.17-.09-.33-.19-.47-.26-.34-.7-.46-.9-.5v-.02c-.73-.39.31-.95.51-1.05ZM580.96,320.65l.03-.04c.16.03.57.13.8.42.13.17.18.37.15.62-.06.09-.33.48-.74.56-.21.04-.43,0-.65-.15.19-.22.58-.78.4-1.41ZM579.77,321.25c-.06.23-.09.5.08.72-.07.07-.16.14-.24.14-.03-.08-.08-.31.04-.79,0-.02,0-.04,0-.06.06-.03.1-.05.1-.05l.03.04ZM579.04,322.47c0-.5.18-.82.35-1.01-.1.56.03.78.05.8.01.02.03.03.04.04.04.02.09.03.13.03.23,0,.44-.26.47-.29.04-.05.03-.11-.01-.15-.28-.25-.02-.77.04-.89.16-.25.4-.44.4-.44.09-.01.17.06.23.13.21.69-.4,1.28-.43,1.3-.02.02-.04.05-.03.09s.02.06.04.08c.25.19.49.28.74.28.06,0,.13,0,.19-.02.55-.11.88-.66.9-.69,0-.01.01-.03.01-.04,0-.04,0-.08,0-.12l.13.02c.05.32.15.96.26,1.14.03.05.09.07.14.04,0,0,.98-.42,1.62-.42,0,0,.07,0,.16,0-.34.31-.93.76-1.61.95-.03,0-.05.03-.07.05-.13.24-.54.89-.85,1.05-.02.01-.04.04-.05.06-.06-.1-.13-.28-.12-.54,0-.09-.05-.29-.3-.37,0,0-.51-.1-.56-.51,0-.03-.2-.69-.66-.82-.26-.07-.55.04-.84.34-.03.03-.04.08-.02.12s.06.07.11.06c.01,0,.05,0,.1,0-.08.1-.56.61-.56-.3ZM581.72,324.63l-.03.02s-.02-.01-.03-.01c-.32,0-.38-.4-.38-.42-.02-.15-.09-.22-.15-.26-.14-.09-.31-.03-.31-.03-.18.03-.41.04-.51-.09-.11-.14-.04-.41,0-.51,0-.02,0-.03,0-.05-.04-.44-.3-.64-.54-.71.16-.12.31-.16.44-.12.34.09.5.65.5.65h0c.07.55.71.68.72.68.13.04.13.13.13.15,0,.35.1.58.17.7,0,0-.01,0-.02,0ZM580.15,323.99c.14.16.37.21.72.15.02,0,.1-.02.14,0,.02.02.04.05.05.1.02.14.1.37.27.5l-.54-.1c-.05-.17-.42-.24-.42-.24-.13-.12-.19-.26-.22-.42ZM581.38,325.77c.05.02.11.03.17.05-.06-.01-.12-.03-.17-.05ZM583.66,323.81c-.06,0-.11.04-.12.09,0,.06.03.11.09.12.82.18,1.38.15,1.76.05-2.4,2.26-3.97,1.55-4.41,1.27l.84-.52c.18-.01.27-.14.3-.25.37-.23.77-.89.87-1.07,1.14-.32,1.97-1.29,2.01-1.33.04-.04.03-.11,0-.15-.04-.04-.11-.04-.15,0-.18.15-.48.12-.49.12-.58,0-1.35.29-1.62.4-.08-.24-.17-.81-.22-1.15-.06-.63.08-1.15.43-1.53.56-.61,1.51-.75,1.94-.79.01,0,.02.02.04.02,0,0,0,0,0,0,.06,0,.1-.02.15-.02.02,0,.03,0,.03,0,.01,0,.03,0,.04,0,0,0,0,0,0,0,.4-.07.69-.21.9-.37-.07.23-.14.49-.18.76-.11.29-.29.61-.53.78-.51.36-1.25.87-1.27,1.36,0,0,1.41-.16,1.82-.71.03.12.06.24.1.36-.29,2.73-2.24,2.59-2.33,2.59ZM587.59,322.63c-.39-.21-.71-.47-.9-.66-.13-.12-.23-.24-.3-.37-.67-1.17-.27-2.52.03-3.33.06-.1.09-.16.09-.17,0-.02,0-.04,0-.06,0-.02.01-.03.02-.05.07-.17.11-.29.13-.37.04-.15.05-.27.04-.37.11.07.22.18.25.32,0,.06,0,.09,0,.1,0,.06.06.1.11.1.06,0,.1-.05.11-.11,0-.04,0-.08,0-.12-.02-.3-.02-1.21.43-1.8.03-.03.64-.6.72-1.18.08.07.16.17.17.3-.13.12-.47.52-.4,1.31v.18s-.22-.11-.22-.11c-.04-.02-.1-.01-.13.02-.03.04-.04.09,0,.14,0,0,.12.18,0,.53-.1.14-.79,1.15-.32,2.03-.27.16-.62.54-.49,1.14.01.03.27.61.94.8l-.02.02s-.03.05-.03.08c0,.03.02.06.04.08.02.02.53.42,1.26.1v.05s.04.06.07.08c.03.01,2.49,1.19,2.04,3.68,0,0,0,.01,0,.02-.62,0-1.5-.18-2.71-.8.25-1.1-.92-1.59-.93-1.59ZM588.35,325.38s-.17-.26-.08-.41c0,0,.14-.1.34.05,0,0-.32.08-.26.37ZM588.78,325.7s-.25-.28-.17-.49c0,0,.16-.15.42,0,0,0-.37.15-.25.49ZM589.3,326.06s-.38-.3-.32-.57c0,0,.16-.22.53-.09,0,0-.43.27-.21.67ZM589.47,325.69s.2-.27.65-.11c0,0-.53.33-.26.82,0,0-.46-.36-.39-.7ZM590.04,326s.1-.37.63-.39c0,0-.42.56.06.96,0,0-.63-.19-.7-.58ZM591.07,327.96c-.12.04-.21.09-.28.14.11-.31.35-.39.36-.4.06-.02.09-.08.07-.14-.02-.06-.08-.09-.14-.07,0,0-.09.03-.18.1,0,0,0-.01,0-.02.03-.03.05-.06.05-.06.02-.03.02-.06.02-.09.08-.15.21-.28.44-.24h.37c0,.07,0,.13,0,.2,0,0,0,.01.01.02-.07.18-.36.44-.72.56ZM592.66,326.89c.02-.17.12-.28.22-.35-.06.14-.13.26-.22.35ZM593.03,321.09c.49,1.33.35,2.28.21,2.77,0,0,0,0,0,0-.01,0-.16.11-.35.29.01-.06.02-.13.03-.2.01-.07.25-1.83-.63-3.04,0,0-.23-.33-.45-.73.09-.07.18-.19.14-.4,0,0,.27-.08.35-.26.25.73.69,1.54.71,1.57ZM592.02,317.99l-.27-.1c-.3-.09-.54.03-.54.03.03-.38,1.15-.39,1.15-.39l-.34.47ZM592.77,317.08l-.38.02c0-.62.56-1.17.56-1.17.36,1.11-.18,1.15-.18,1.15ZM592.97,317.25l.16-.28.54.5-.7-.23ZM594.61,317.68c.02.39-.41.44-.41.44.06-.33-.43-.59-.43-.59l.84.15ZM593.97,317.18s-.64.04-.66-.56l.66.56Z"/>
          </g>
        </g>
        <path class="cls-2" d="M635.63,288.92c5.73-1.54,9.09-5.61,9.09-11.11v-.1c0-3.04-1.09-5.81-3.06-7.78-2.5-2.5-6.38-3.88-10.92-3.88h-16.45v37.95h5.97v-14.01h8.87l10.45,14.01h7.38l-11.33-15.08ZM620.26,271.7h10.17c5.25,0,8.27,2.24,8.27,6.15v.1c0,3.93-3.27,6.46-8.32,6.46h-10.12v-12.72Z"/>
        <path class="cls-2" d="M671.26,265.42c-10.87,0-19.39,8.6-19.39,19.59v.1c0,11.11,8.29,19.49,19.29,19.49s19.39-8.61,19.39-19.6v-.1c0-11.11-8.29-19.49-19.29-19.49ZM671.26,298.95c-7.56,0-13.26-5.99-13.26-13.93v-.1c0-7.88,5.66-13.83,13.16-13.83s13.26,5.99,13.26,13.93v.1c0,7.88-5.66,13.83-13.16,13.83Z"/>
        <polygon class="cls-2" points="729.15 266.04 713.3 289.02 713.3 303.99 707.28 303.99 707.28 289.07 691.43 266.04 698.69 266.04 710.34 283.32 722.09 266.04 729.15 266.04"/>
        <path class="cls-2" d="M746.85,265.78h-5.04l-17.29,38.21h6.26l4.28-9.53h18.38l4.22,9.53h6.47l-17.29-38.21ZM751,288.85h-13.49l6.77-15.05,6.72,15.05Z"/>
        <polygon class="cls-2" points="796.02 298.33 796.02 303.99 769.75 303.99 769.75 266.04 775.72 266.04 775.72 298.33 796.02 298.33"/>
        <g>
          <path class="cls-2" d="M850.46,282.24v15.75l-.32.28c-2.41,2.15-7.57,5.75-15.11,5.75-11.35,0-19.29-8.02-19.29-19.49v-.1c0-10.99,8.36-19.59,19.03-19.59,5.76,0,9.83,1.45,14.06,5.01l.73.62-3.87,4.55-.73-.63c-2.32-2.02-5.18-3.89-10.34-3.89-7.15,0-12.75,6.07-12.75,13.83v.1c0,8.4,5.35,14.04,13.31,14.04,3.37,0,6.87-1.16,9.45-3.12v-7.54h-10.97v-5.56h16.79Z"/>
          <path class="cls-2" d="M876.91,288.33c5.72-1.54,9.09-5.61,9.09-11.11v-.1c0-3.04-1.09-5.8-3.06-7.78-2.51-2.51-6.38-3.89-10.92-3.89h-16.45v37.96h5.97v-14.01h8.87l10.45,14.01h7.38l-11.33-15.08ZM861.54,271.11h10.17c5.25,0,8.27,2.24,8.27,6.15v.1c0,3.93-3.27,6.46-8.32,6.46h-10.12v-12.72Z"/>
          <path class="cls-2" d="M908.43,264.83c-10.87,0-19.39,8.61-19.39,19.59v.1c0,11.11,8.29,19.49,19.29,19.49s19.39-8.61,19.39-19.6v-.1c0-11.11-8.29-19.49-19.29-19.49ZM908.43,298.35c-7.56,0-13.26-5.99-13.26-13.93v-.1c0-7.88,5.66-13.83,13.16-13.83s13.26,5.99,13.26,13.93v.1c0,7.88-5.66,13.83-13.16,13.83Z"/>
          <path class="cls-2" d="M963.61,265.45v21.6c0,10.59-5.98,16.92-15.99,16.92s-15.94-6.36-15.94-16.61v-21.91h5.97v21.66c0,7.12,3.67,11.2,10.07,11.2s9.92-3.89,9.92-10.94v-21.91h5.97Z"/>
          <path class="cls-2" d="M983.62,265.45h-14.44v37.96h5.97v-12.72h7.8c9.04,0,15.11-5.12,15.11-12.75v-.1c0-7.52-5.67-12.38-14.45-12.38ZM983.11,285.07h-7.96v-13.96h8.16c5.55,0,8.73,2.51,8.73,6.87v.1c0,4.24-3.51,6.98-8.94,6.98Z"/>
        </g>
        <g>
          <path class="cls-2" d="M859.36,324.95l1.84-2.2c1.27,1.05,2.6,1.72,4.22,1.72,1.27,0,2.04-.5,2.04-1.33v-.04c0-.79-.48-1.19-2.84-1.8-2.84-.73-4.68-1.51-4.68-4.32v-.04c0-2.56,2.06-4.26,4.94-4.26,2.06,0,3.81.65,5.25,1.8l-1.61,2.34c-1.25-.87-2.48-1.39-3.67-1.39s-1.82.54-1.82,1.23v.04c0,.93.61,1.23,3.05,1.86,2.86.75,4.48,1.78,4.48,4.24v.04c0,2.8-2.14,4.38-5.19,4.38-2.14,0-4.3-.75-5.99-2.26Z"/>
          <path class="cls-2" d="M873.89,312.88h3.11v14.12h-3.11v-14.12Z"/>
          <path class="cls-2" d="M881.03,312.88h2.86l6.62,8.7v-8.7h3.07v14.12h-2.64l-6.84-8.98v8.98h-3.07v-14.12Z"/>
          <path class="cls-2" d="M896.85,319.98v-.04c0-4.01,3.03-7.3,7.36-7.3,2.66,0,4.26.89,5.57,2.18l-1.98,2.28c-1.09-.99-2.2-1.59-3.61-1.59-2.38,0-4.1,1.98-4.1,4.4v.04c0,2.42,1.67,4.44,4.1,4.44,1.61,0,2.6-.65,3.71-1.65l1.98,2c-1.45,1.55-3.07,2.52-5.79,2.52-4.16,0-7.24-3.21-7.24-7.26Z"/>
          <path class="cls-2" d="M912.87,312.88h10.65v2.76h-7.57v2.86h6.66v2.76h-6.66v2.97h7.67v2.76h-10.75v-14.12Z"/>
          <path class="cls-2" d="M935.35,315.93l-2.46.61-.65-2.54,4.06-1.21h2.12v14.22h-3.07v-11.08Z"/>
          <path class="cls-2" d="M942.23,325.57l1.63-2.36c1.03.83,1.9,1.21,3.09,1.21,1.74,0,2.66-1.31,2.86-3.21-.69.59-1.63.97-2.86.97-3.07,0-5.04-1.69-5.04-4.56v-.04c0-2.84,2.2-4.94,5.39-4.94,1.9,0,3.01.46,4.08,1.53,1.01,1.01,1.67,2.54,1.67,5.33v.04c0,4.58-2.16,7.71-6.17,7.71-2.06,0-3.45-.69-4.64-1.67ZM949.87,317.5v-.04c0-1.25-.93-2.16-2.48-2.16s-2.4.89-2.4,2.14v.04c0,1.25.93,2.12,2.46,2.12s2.42-.89,2.42-2.1Z"/>
          <path class="cls-2" d="M956.09,325.57l1.63-2.36c1.03.83,1.9,1.21,3.09,1.21,1.74,0,2.66-1.31,2.86-3.21-.69.59-1.63.97-2.86.97-3.07,0-5.04-1.69-5.04-4.56v-.04c0-2.84,2.2-4.94,5.39-4.94,1.9,0,3.01.46,4.08,1.53,1.01,1.01,1.67,2.54,1.67,5.33v.04c0,4.58-2.16,7.71-6.17,7.71-2.06,0-3.45-.69-4.64-1.67ZM963.73,317.5v-.04c0-1.25-.93-2.16-2.48-2.16s-2.4.89-2.4,2.14v.04c0,1.25.93,2.12,2.46,2.12s2.42-.89,2.42-2.1Z"/>
          <path class="cls-2" d="M972.09,315.93l-2.46.61-.65-2.54,4.06-1.21h2.12v14.22h-3.07v-11.08Z"/>
        </g>
      </g>
    </g>
  </g>
</svg>